<?xml version="1.0"?>
<svg viewBox="0 0 1008 1008" xmlns="http://www.w3.org/2000/svg" xmlns:svg="http://www.w3.org/2000/svg" preserveAspectRatio="xMidYMid meet" version="1.0">
 <g class="layer">
  <title>Layer 1</title>
  <g fill="green" id="svg_1" xmlns="http://www.w3.org/2000/svg">
   <path d="m528.63,109.68c-28.26,1.86 -47.13,4.19 -67.74,8.3c-34.55,6.9 -71.13,19.39 -104.03,35.51c-12.68,6.15 -28.74,15.29 -42.1,23.86c-71.42,45.76 -127.06,112.12 -158.42,188.92c-32.23,79.04 -37.74,165.53 -15.68,248.57c16.06,60.3 46.06,115.57 89.22,163.85c8.61,9.69 36.68,36.35 46.64,44.36c54.19,43.71 117,73.26 184.74,87.05c92.22,18.73 189.58,6.43 274.45,-34.58c71.8,-34.67 131.03,-87.7 173.03,-155.09c7.64,-12.21 22.26,-40.26 26.9,-51.54c1.94,-4.75 4.06,-9.88 4.74,-11.37c3,-6.52 10.55,-29.92 14.03,-42.87c10.55,-39.98 15,-82.67 12.68,-120.98c-3.48,-57.13 -16.94,-107.37 -41.71,-155.84c-11.81,-23.11 -14.52,-27.59 -27,-46.14c-22.16,-32.81 -54.19,-66.73 -88.64,-93.76c-11.32,-8.85 -36.19,-25.54 -46.55,-31.22c-2.03,-1.12 -5.9,-3.26 -8.61,-4.75c-9.68,-5.41 -36.1,-17.8 -46.45,-21.9c-44.9,-17.62 -90.09,-27.49 -137.9,-30.1c-15.97,-0.84 -31.74,-0.93 -41.61,-0.28l0.01,0zm46.06,22.65c39.29,2.89 78.68,10.9 108.77,22c36.97,13.7 54.97,22.56 83.71,41.1c17.42,11.28 21,13.7 27.68,18.92c66.97,52.75 112.16,118.09 134.71,194.79c18.77,63.94 20.03,133.19 3.58,196.75c-20.23,78.48 -64.93,147.82 -129.19,200.39c-70.74,57.97 -162.67,90.31 -256.45,90.31c-104.71,0 -204.87,-39.61 -278.32,-109.98c-16.84,-16.22 -22.55,-22.09 -27.97,-28.89c-1.84,-2.33 -3.87,-4.57 -4.55,-5.13c-3.1,-2.52 -20.23,-26.28 -29.23,-40.54c-12.87,-20.13 -28.84,-53.13 -36.29,-74.75c-16.74,-48.47 -23.71,-101.31 -19.84,-150.24c1.16,-15.94 5.13,-43.06 7.64,-53.22c0.97,-4.1 2.32,-9.6 2.9,-12.12c2.42,-10.9 10.45,-34.67 16.64,-49.86c12.19,-29.45 30.87,-61.61 50.03,-86.21c19.74,-25.26 50.61,-55.74 73.64,-72.7c3.48,-2.52 6.48,-4.85 6.77,-5.22c0.29,-0.28 6.58,-4.57 14.03,-9.41c43.35,-28.24 86.61,-46.51 135.48,-57.13c19.06,-4.19 45.29,-7.92 63.87,-9.13c11.42,-0.75 40.84,-0.56 52.35,0.28l0.04,-0.01z" id="svg_2" transform="matrix(1 0 0 1 0 0)"/>
   <path d="m511.41,156.28c0.19,0.47 2.52,4.01 5.13,7.92c4.65,6.9 6.29,8.2 10.94,8.2c3.1,0 2.71,-1.3 -1.84,-6.06c-4.65,-4.85 -3.58,-5.31 3.1,-1.4c5.9,3.45 6.1,1.86 0.48,-3.36c-3.19,-2.89 -5.52,-4.19 -9.29,-4.94c-5.71,-1.21 -9,-1.3 -8.52,-0.37l0,0.01z" id="svg_3" transform="matrix(1 0 0 1 0 0)"/>
   <path d="m549.53,161.69c-4.84,1.68 -8.71,4.38 -9.1,6.52c-0.39,1.49 -0.19,1.49 2.61,-0.09c3.87,-2.24 4.55,-1.4 1.94,2.8c-2.13,3.45 -1.45,4.19 2.13,2.42c2.13,-1.12 6.97,-9.79 6.48,-11.65c-0.19,-1.03 -0.97,-1.03 -4.06,0z" id="svg_4" transform="matrix(1 0 0 1 0 0)"/>
   <path d="m593.47,160.85c0.1,0.47 1.94,4.38 4.16,8.76c3.97,7.64 4.16,7.92 7.74,8.2c1.94,0.19 3.58,0 3.58,-0.37c0,-0.37 -1.35,-2.7 -3,-5.22c-1.65,-2.52 -2.9,-4.75 -2.61,-4.94c0.19,-0.19 2.32,1.21 4.65,3.26c4.84,4.01 6,4.57 5.13,2.05c-1.16,-3.26 -5.32,-7.74 -8.9,-9.41c-4.16,-2.05 -10.74,-3.45 -10.74,-2.33l-0.01,0z" id="svg_5" transform="matrix(1 0 0 1 0 0)"/>
   <path d="m627.05,171.85c-3.77,1.3 -7.45,3.91 -7.45,5.31c0,0.37 1.55,0.09 3.39,-0.65c3.87,-1.49 4.26,-0.75 1.45,2.7c-2.42,2.98 -2.42,3.45 0,3.45c2.42,0 6.29,-3.82 8.81,-8.67l1.84,-3.45l-2.13,0c-1.26,0.09 -3.87,0.65 -5.9,1.3l-0.01,0.01z" id="svg_6" transform="matrix(1 0 0 1 0 0)"/>
   <path d="m534.92,178.93c2.32,8.39 2.13,8.95 -2.9,9.6c-5.81,0.84 -13.16,4.47 -16.45,8.3c-9.77,11.09 -11.03,32.99 -2.52,44.92c7.64,10.72 22.06,14.07 34.16,7.83c6.1,-3.08 8.42,-5.59 11.52,-12.4c2.81,-6.15 1.55,-6.34 -1.55,-0.28c-1.45,2.7 -3.58,5.96 -4.74,7.08c-7.16,7.64 -20.32,7.64 -27.1,0.09c-3.68,-4.19 -5.42,-9.88 -5.42,-17.62l0,-4.66l7.06,0c16.55,-0.09 26.9,-2.89 31.16,-8.39c7.45,-9.69 0.97,-21.62 -13.35,-24.42l-5.71,-1.12l0.39,-6.15c0.29,-3.36 0.29,-5.31 0.1,-4.47c-0.58,2.33 -1.74,2.05 -4.06,-0.93l-1.94,-2.52l1.35,5.13l0,0.01zm7.06,12.21c3.87,1.3 6.19,6.06 6.29,12.86c0.1,10.81 -5.03,14.73 -19.26,15.1l-8.61,0.19l-0.29,-2.52c-1.06,-8.2 3.68,-21.81 8.71,-25.26c2.52,-1.58 8.81,-1.86 13.16,-0.37z" id="svg_7" transform="matrix(1 0 0 1 0 0)"/>
   <path d="m459.15,177.53c-1.84,0.75 -4.06,2.33 -5.03,3.45c-2.52,2.89 -2.42,8.76 0,12.68c2.52,3.91 2.52,3.91 -0.97,3.91c-4.45,0 -12.87,3.45 -17.32,7.18c-11.52,9.51 -10.94,28.43 1.16,39.15c2.42,2.14 5.52,4.19 6.87,4.57c3.29,0.75 3.19,1.77 -0.77,5.13c-3.87,3.17 -7.35,9.6 -7.35,13.33c0,4.38 3.29,9.32 7.16,10.63c1.84,0.65 5.32,2.7 7.55,4.57c9.1,7.27 17.71,8.57 28.55,4.01c6.48,-2.61 13.45,-9.69 14.9,-15.1c2.13,-7.74 -2.61,-16.87 -9.48,-18.08c-4.84,-0.93 -8.23,0.37 -19.35,7.36c-11.42,7.27 -16.84,9.04 -21.1,7.08c-3.97,-1.77 -4.45,-6.24 -1.16,-10.9c2.81,-4.19 5.03,-5.31 13.74,-6.71c8.52,-1.3 11.9,-2.89 16.84,-7.74c5.61,-5.41 7.26,-10.16 6.68,-19.01c-0.68,-11.37 -5.61,-18.27 -17.13,-24.14c-6.48,-3.36 -8.9,-6.9 -8.61,-12.4c0.19,-3.26 0.87,-4.47 2.9,-5.96c3.39,-2.42 4.35,-1.49 2.42,2.24c-3.87,7.74 6.58,12.3 11.42,5.13c2.32,-3.45 0.48,-8.3 -3.77,-10.25c-3.97,-1.77 -4.06,-1.77 -8.13,-0.09l-0.02,-0.04zm-2.61,23.21c1.74,0.75 4.06,2.52 4.94,4.01c0.97,1.4 2.03,2.8 2.32,3.08c0.87,0.65 3.87,10.63 5.52,18.17c1.35,6.52 1.06,13.23 -0.87,16.59c-1.65,2.98 -6.77,5.31 -11.81,5.31c-4.16,0 -5.13,-0.37 -8.32,-3.54c-2.03,-1.86 -4.45,-5.78 -5.61,-8.67c-2.42,-6.24 -5.03,-18.08 -5.03,-22.74c0,-9.69 9.58,-15.94 18.87,-12.21l-0.01,0zm30.87,64.78c2.52,2.61 2.9,7.55 0.87,11.28c-2.13,4.1 -10.45,9.04 -16.64,9.88c-5.9,0.84 -14.03,-0.84 -18.1,-3.82c-4.06,-2.98 -4.06,-3.91 -0.1,-5.69c2.71,-1.12 12.87,-6.9 17.13,-9.69c6.1,-4.01 14.03,-4.94 16.84,-1.96z" id="svg_8" transform="matrix(1 0 0 1 0 0)"/>
   <path d="m613.5,187.88l0.58,6.62l-6.39,0.56c-12.1,1.12 -20.03,6.9 -24.97,18.27c-3.87,9.04 -4.94,20.6 -2.42,27.77c3.97,11.37 13.45,17.99 25.93,17.99c3.58,0 7.74,-0.47 9.19,-1.12c4.65,-1.86 10.35,-6.8 12.77,-11c2.9,-5.03 1.35,-4.57 -3,0.93c-6.1,7.83 -13.35,10.63 -21.68,8.39c-10.16,-2.8 -14.71,-12.49 -12.29,-26.38l0.58,-3.63l4.45,0.56c2.42,0.28 9.29,0.75 15.1,1.12c9.87,0.47 10.94,0.37 15,-1.68c5.9,-2.89 8.71,-7.18 8.71,-13.23c0,-3.08 -0.68,-5.78 -1.84,-7.74c-2.03,-3.17 -7.94,-6.8 -13.94,-8.67c-2.71,-0.84 -3.58,-1.49 -3.19,-2.61c1.35,-4.75 1.65,-7.64 0.68,-7.64c-0.58,0 -1.65,-1.12 -2.42,-2.61c-1.45,-2.42 -1.45,-2.14 -0.87,4.1l0.02,0zm3.77,10.72c4.45,2.61 5.42,4.75 5.42,11.56c-0.1,13.23 -7.16,17.24 -25.84,14.73l-4.55,-0.56l0.58,-3.45c1.06,-6.8 4.55,-15.84 7.06,-18.73c4.84,-5.5 11.71,-6.9 17.32,-3.54l0.01,-0.01z" id="svg_9" transform="matrix(1 0 0 1 0 0)"/>
   <path d="m745.4,205.03c1.35,1.03 3.19,2.05 4.16,2.42c1.55,0.47 1.35,1.3 -2.32,7.64c-2.23,3.91 -5.42,9.69 -7.06,12.77c-1.74,3.08 -9.58,17.06 -17.42,30.94l-14.32,25.35l-3.39,-1.3c-6.97,-2.8 -3.97,-0.56 7.26,5.5c6.39,3.36 12.19,6.15 12.87,6.15c0.77,0 -0.29,-0.93 -2.23,-2.05c-2.03,-1.12 -3.68,-2.61 -3.68,-3.26c0,-0.65 2.32,-5.22 5.23,-10.25c2.9,-5.03 7.16,-12.49 9.48,-16.59c3.19,-5.59 5.03,-7.83 7.55,-9.04c4.16,-1.96 6.77,-2.14 6.77,-0.37c0,2.24 4.74,6.9 8.13,8.02c2.52,0.75 4.84,0.56 11.32,-0.84c4.45,-1.03 9.39,-1.96 11.03,-2.14l2.81,-0.28l-4.94,-4.75c-5.71,-5.5 -10.06,-7.74 -16.64,-8.48c-4.74,-0.56 -12.1,1.12 -11.23,2.42c0.19,0.47 2.61,1.03 5.23,1.3c2.61,0.28 6.48,1.4 8.52,2.42l3.68,1.86l-6.77,0.09c-5.61,0 -6.97,-0.28 -7.94,-1.77c-0.97,-1.49 -1.55,-1.58 -5.03,-0.75c-2.13,0.56 -4.26,0.75 -4.65,0.37c-0.58,-0.65 1.84,-5.78 6.77,-14.17c1.26,-2.05 4.55,-7.92 7.35,-13.05c2.81,-5.13 5.52,-9.69 6,-10.25c1.16,-1.21 1.06,-2.33 -0.19,-2.33c-0.58,0 -4.74,-1.68 -9.29,-3.73c-9.29,-4.19 -10.55,-4.47 -7.06,-1.86l0,0.01z" id="svg_10" transform="matrix(1 0 0 1 0 0)"/>
   <path d="m672.34,210.9c-10.74,4.19 -18,13.42 -21.29,26.94c-3,12.21 -1.16,20.6 6.19,27.77c11.23,11.09 27.77,10.63 36.77,-1.12c4.26,-5.5 2.9,-5.59 -2.23,-0.09c-5.42,5.78 -8.71,7.18 -15.58,6.62c-13.16,-1.03 -18,-12.49 -12.97,-30.29c5.52,-19.2 12.39,-27.31 23.32,-27.31c9.68,0 17.23,6.52 17.23,14.73l0,4.19l-3.68,-3.82c-2.13,-2.14 -4.45,-3.91 -5.23,-3.91c-2.32,0 -6.58,4.66 -6.58,7.18c0,3.26 4.06,6.8 7.94,6.8c8.42,-0.09 12.39,-10.53 7.06,-18.55c-4.84,-7.36 -22.35,-12.58 -30.97,-9.13l0.02,-0.01z" id="svg_11" transform="matrix(1 0 0 1 0 0)"/>
   <path d="m366.34,227.86c-14.61,6.99 -20.23,17.15 -13.84,24.98c2.9,3.54 6.87,4.57 10.84,2.7c1.74,-0.84 3.58,-2.7 4.06,-4.01c1.16,-3.26 -1.06,-7.55 -4.65,-8.76c-2.42,-0.84 -3,-0.56 -5.52,2.14c-1.55,1.68 -2.81,3.63 -2.81,4.38c0,2.05 -1.74,1.68 -2.42,-0.56c-1.84,-5.59 3.48,-13.61 11.52,-17.24c5.81,-2.61 9.19,-2.8 13.45,-0.75c5.23,2.61 9.87,9.13 18.58,25.54c1.94,3.82 3.77,7.18 3.97,7.36c0.19,0.28 10.16,-2.61 10.84,-3.17c0.77,-0.65 -11.9,-22.09 -15.87,-26.94c-5.81,-7.08 -9.19,-8.95 -15.97,-8.95c-4.26,0 -6.87,0.65 -12.19,3.26l0.01,0.02z" id="svg_12" transform="matrix(1 0 0 1 0 0)"/>
   <path d="m378.34,255.36c-4.35,1.3 -10.84,5.69 -13.16,8.85c-5.42,7.64 -4.65,16.59 1.94,22.28c2.03,1.86 4.94,3.54 6.39,3.91c1.55,0.28 3.29,0.75 3.97,0.93c0.77,0.19 3.1,0.09 5.32,-0.28l4.06,-0.65l-6.1,-0.65c-9,-0.84 -14.32,-5.31 -15.39,-12.77c-0.77,-5.31 1.84,-11.37 6.48,-15.47c3.97,-3.45 4.84,-3.73 13.06,-4.85c3.77,-0.47 4.45,-0.75 2.9,-1.4c-2.42,-0.93 -6,-0.93 -9.48,0.09l0.01,0.01z" id="svg_13" transform="matrix(1 0 0 1 0 0)"/>
   <path d="m419.47,258.16c-0.58,1.03 -5.42,3.82 -10.55,6.15c-15.1,6.9 -18.68,10.44 -18.68,18.55l0,3.36l3.19,-1.58c3,-1.49 9.68,-6.34 12.77,-9.41c0.87,-0.75 1.74,-1.21 2.03,-0.93c1.35,1.21 -1.35,5.87 -6.39,10.9c-6.1,6.15 -5.52,6.99 2.52,3.36c5.61,-2.52 11.52,-9.23 14.32,-16.31c1.45,-3.73 3.39,-15.94 2.42,-15.94c-0.19,0 -0.97,0.84 -1.65,1.86l0.02,-0.01z" id="svg_14" transform="matrix(1 0 0 1 0 0)"/>
   <path d="m288.15,258.34c-3.39,1.21 -8.9,4.75 -15,9.6c-8.13,6.43 -28.06,24.89 -28.06,25.91c0,0.56 1.45,-0.28 3.19,-1.96c1.74,-1.68 3.68,-2.98 4.16,-2.98c0.58,0 11.61,11 24.68,24.42c12.97,13.51 25.74,26.75 28.35,29.45c4.74,4.85 4.74,4.94 2.71,6.34c-1.16,0.75 -2.61,2.33 -3.19,3.45c-1.74,2.98 6.87,-4.19 20.81,-17.43c14.52,-13.79 17.52,-18.83 17.52,-29.17c0,-3.63 -0.29,-6.99 -0.68,-7.27c-0.39,-0.37 -3.48,0.47 -6.87,1.86l-6.29,2.52l2.42,4.1c2.9,4.94 3.39,13.98 0.97,17.43c-1.84,2.7 -11.42,13.14 -12.29,13.51c-0.39,0.19 -13.64,-12.96 -29.52,-29.17l-28.84,-29.55l4.26,-4.1c2.32,-2.33 6.58,-5.22 9.29,-6.62c6,-2.8 10.16,-2.42 15.68,1.21l3.48,2.33l2.61,-5.41c3.48,-6.99 3.48,-8.3 -0.29,-9.04c-3.97,-0.75 -5.52,-0.65 -9.1,0.56l0,0.01z" id="svg_15" transform="matrix(1 0 0 1 0 0)"/>
   <path d="m769.11,261.98c-1.06,0.56 -4.55,5.87 -7.74,11.84c-9.39,17.62 -16.16,29.08 -17.13,29.08c-0.48,0 -2.23,-0.65 -3.77,-1.49c-4.65,-2.24 -4.45,-0.84 0.29,1.77c8.9,4.85 20.9,10.9 21.68,10.9c0.48,0 -0.87,-1.12 -3,-2.52c-2.13,-1.3 -4.06,-2.52 -4.26,-2.7c-0.29,-0.28 3,-6.24 11.71,-21.44c5.13,-8.76 9.29,-17.99 10.84,-23.95c0.58,-2.42 0.48,-2.52 -3,-2.42c-2.03,0 -4.55,0.47 -5.61,0.93l-0.01,0z" id="svg_16" transform="matrix(1 0 0 1 0 0)"/>
   <path d="m302.47,265.8c-3.29,6.06 -6.1,12.12 -6.1,13.33c0,0.75 1.06,2.52 2.42,4.01c1.35,1.58 2.42,3.36 2.42,4.1c0,1.49 -4.84,9.23 -8.32,13.14c-4.35,5.03 -2.42,5.31 4.06,0.56c3.48,-2.52 8.13,-5.5 10.35,-6.62c2.23,-1.12 3.58,-2.14 2.9,-2.33c-0.58,-0.19 -2.9,0.47 -5.13,1.58c-2.23,1.12 -4.26,1.77 -4.55,1.49c-0.29,-0.28 0.19,-2.14 1.06,-4.29c0.87,-2.05 1.84,-6.71 2.13,-10.25c0.77,-7.46 2.32,-8.76 2.32,-1.96c0,2.61 0.39,4.85 0.87,5.13c1.16,0.75 3,-4.47 3,-8.48c0,-3.45 -3.58,-12.4 -4.94,-12.4c-0.48,0 -1.55,1.4 -2.52,2.98l0.03,0.01z" id="svg_17" transform="matrix(1 0 0 1 0 0)"/>
   <path d="m809.17,279.59c-6.68,1.86 -10.16,6.24 -9.19,11.65c0.68,3.45 2.9,5.69 6.58,6.52c2.13,0.56 3.19,0.09 5.61,-2.14c1.55,-1.58 2.9,-3.63 2.9,-4.57c0,-2.98 -4.06,-5.87 -8.03,-5.87c-4.55,0 -4.55,-1.21 0,-3.26c4.94,-2.24 12.1,-0.75 17.61,3.82c7.06,5.87 8.71,11.93 4.94,18.92c-1.84,3.63 -12.97,17.34 -18.97,23.39l-3.19,3.26l3.87,4.19l3.77,4.19l3,-3.26c7.26,-7.74 8.71,-9.41 12.97,-15.01c6.58,-8.67 8.23,-12.12 8.23,-17.8c0,-3.82 -0.58,-5.78 -2.42,-8.48c-7.35,-10.35 -20.23,-17.62 -27.68,-15.56l0,0.01z" id="svg_18" transform="matrix(1 0 0 1 0 0)"/>
   <path d="m323.96,283.97c-6.19,1.3 -9.1,4.01 -4.35,4.01c1.06,0 4.06,0.47 6.77,1.03c7.55,1.58 6,2.98 -2.9,2.52c-7.64,-0.28 -8.13,-0.09 -7.84,2.98c0.29,2.14 4.84,5.59 7.45,5.59c1.26,0 4.84,-0.93 7.94,-1.96c3,-1.12 7.84,-2.52 10.74,-3.08l5.23,-1.12l-4.26,-3.36c-6.87,-5.41 -13.55,-7.74 -18.77,-6.62l-0.01,0.01z" id="svg_19" transform="matrix(1 0 0 1 0 0)"/>
   <path d="m388.31,288.91c-0.77,0.47 -0.97,0.93 -0.48,0.93c0.58,0 1.65,-0.47 2.42,-0.93c0.77,-0.47 1.06,-0.93 0.48,-0.93c-0.48,0 -1.65,0.47 -2.42,0.93z" id="svg_20" transform="matrix(1 0 0 1 0 0)"/>
   <path d="m784.59,300.56c-7.26,2.7 -12.1,8.95 -12.1,15.84c0,3.73 2.81,9.88 6.29,13.98c1.94,2.24 1.84,1.77 -0.68,-2.24c-3.58,-5.78 -4.16,-12.49 -1.45,-17.52c3.68,-6.62 14.52,-9.6 22.26,-5.96c5.23,2.42 7.55,4.75 10.74,10.81c2.71,5.03 3.48,3.45 0.97,-2.14c-4.26,-9.88 -16.94,-16.03 -26.03,-12.77z" id="svg_21" transform="matrix(1 0 0 1 0 0)"/>
   <path d="m525.15,320.51c-5.61,2.8 -9.39,6.99 -13.64,14.91l-3.68,6.99l-6.29,1.49c-7.84,1.96 -13.55,4.47 -13.55,6.15c0,1.49 3.77,4.1 6,4.1c2.81,0 3,1.77 0.68,7.08c-1.65,3.82 -2.81,5.22 -4.65,5.59c-1.45,0.37 -3.39,1.12 -4.45,1.77c-1.65,0.93 -4.26,0.93 -13.55,-0.09c-20.61,-2.24 -33.39,-1.49 -44.81,2.61c-4.26,1.49 -6.97,3.45 -12.19,8.57c-3.68,3.63 -12.19,12.02 -18.97,18.73c-9.87,9.6 -12.68,12.96 -13.64,16.22c-0.87,2.98 -2.23,4.66 -5.03,6.43c-2.23,1.4 -5.03,4.57 -6.68,7.36c-1.65,2.8 -3.87,5.5 -5.03,6.06c-4.35,2.24 -17.13,13.33 -17.61,15.38c-0.39,1.49 0.19,3.36 1.84,5.78l2.42,3.54l-2.61,3.17c-8.03,9.41 -14.61,29.17 -14.61,43.9c0,9.04 2.71,17.15 11.71,34.76c7.45,14.82 16.45,27.77 24.39,35.14c1.94,1.86 3.58,4.19 3.58,5.22c0,0.93 0.87,4.19 1.94,7.27c1.84,4.85 1.94,6.34 1.06,13.23c-0.97,7.64 -0.29,20.32 1.84,33.27c0.87,5.03 0.77,5.69 -1.26,7.92c-1.16,1.3 -2.23,2.52 -2.32,2.7c-0.1,0.19 -1.55,-0.75 -3.19,-2.05c-3.68,-2.98 -8.71,-4.01 -13.45,-2.61c-5.13,1.4 -7.16,3.82 -6,6.9c1.16,2.98 0.68,3.45 -2.9,2.52c-3.48,-1.03 -8.23,0.28 -11.23,2.98c-3.68,3.36 -2.81,4.1 4.55,4.1c6.48,0 6.68,-0.09 4.35,-1.4c-1.35,-0.84 -2.42,-1.86 -2.42,-2.33c0,-1.58 8.23,0.47 12.87,3.17c2.52,1.49 4.55,2.61 4.55,2.42c0,-0.19 -1.55,-2.14 -3.39,-4.29c-1.84,-2.14 -3.39,-4.75 -3.39,-5.69c0,-1.77 0.1,-1.77 3.19,-0.28c1.65,0.84 4.94,2.8 7.26,4.29c2.32,1.58 4.35,2.61 4.65,2.33c0.68,-0.65 -5.42,-6.15 -9.77,-8.85l-3.87,-2.33l2.71,-0.75c4.65,-1.21 11.71,1.58 14.9,5.87l2.13,2.89l0.77,-3.08c1.06,-3.82 2.81,-4.57 3.58,-1.58c0.58,2.33 2.52,25.82 2.52,31.13c0,2.52 0.48,3.08 3.39,4.01c1.84,0.56 3.39,1.3 3.39,1.58c0,0.28 -0.68,2.8 -1.55,5.69c-1.16,3.82 -1.45,7.46 -1.16,13.42c0.29,4.57 0.77,8.48 1.06,8.85c0.39,0.28 3.77,1.49 7.64,2.7c6.29,2.05 7.06,2.05 7.84,0.75c0.77,-1.3 1.55,-0.84 5.42,2.7c2.42,2.24 6,4.57 7.84,5.13c11.61,3.36 34.55,3.82 41.9,0.84c2.81,-1.21 3.58,-1.96 3.58,-3.91c0,-4.1 -1.55,-5.78 -12.1,-12.96c-7.35,-5.03 -11.9,-8.95 -16.94,-14.82c-3.77,-4.47 -7.55,-8.48 -8.52,-8.95c-1.55,-0.84 -1.55,-1.03 0.19,-2.24c1.74,-1.21 1.74,-1.96 0.68,-17.06c-1.84,-27.31 -2.52,-63.01 -1.16,-66.64c0.68,-1.77 1.45,-7.36 1.74,-12.49c0.48,-9.04 0.39,-9.51 -2.52,-14.91c-1.55,-2.98 -2.71,-5.69 -2.52,-5.87c0.19,-0.19 6.87,3.73 14.9,8.76l14.52,9.23l0,3.73c0.1,3.82 -8.71,46.51 -10.45,50.89c-0.77,1.96 -1.45,2.42 -3.39,2.05c-3.29,-0.65 -9.1,1.4 -10.35,3.63c-0.87,1.58 -0.77,1.77 0.87,1.3c1.55,-0.56 1.84,-0.28 1.35,1.77c-0.39,2.14 -0.1,2.05 3.48,-1.4c6,-5.78 7.26,-4.94 4.45,3.17c-0.87,2.42 -1.26,4.66 -0.97,4.94c0.39,0.37 -0.77,2.05 -2.52,3.73c-3.77,3.73 -2.9,5.13 1.16,1.77c3.39,-2.7 5.81,-3.17 5.81,-1.12c0,0.75 -1.55,4.1 -3.39,7.46c-3.19,5.78 -3.39,6.8 -3.39,14.63l0,8.39l3.68,1.49c3.97,1.68 18.58,2.89 18.58,1.58c0,-0.47 0.39,-1.49 0.97,-2.24c0.68,-1.12 1.55,-0.84 4.74,1.68c2.13,1.68 5.03,3.45 6.58,4.01c6.87,2.52 38.42,1.77 41.32,-1.03c0.48,-0.47 0.87,-2.24 0.87,-3.82c0,-4.29 -3.58,-6.8 -14.61,-10.16c-5.13,-1.58 -10.06,-3.36 -10.84,-4.01c-2.32,-1.86 -14.81,-15.66 -14.42,-15.94c0.19,-0.19 1.74,-0.93 3.29,-1.77c2.32,-1.12 3.1,-2.33 4.06,-5.96c1.16,-4.94 10.26,-29.73 17.9,-49.21c2.61,-6.71 5.23,-13.23 5.81,-14.73c0.48,-1.4 1.26,-2.52 1.65,-2.52c0.39,0 1.55,2.24 2.52,5.03c1.65,4.66 1.65,5.13 0.19,6.62c-2.52,2.33 -1.94,6.06 1.65,11.37c1.84,2.7 3.48,5.87 3.68,6.99c0.19,1.58 1.16,2.24 4.26,2.8c4.35,0.84 3.39,-0.56 11.42,17.71c5.81,12.96 5.81,13.14 -0.58,10.63c-3.97,-1.68 -18.58,-2.05 -29.81,-0.84c-8.52,0.93 -11.32,1.86 -13.64,4.57c-1.26,1.49 -1.16,1.58 0.58,0.84c3.19,-1.4 15,-1.68 19.55,-0.37c2.32,0.56 6.1,2.33 8.32,3.91l4.06,2.8l-2.81,-2.89c-1.45,-1.58 -3.97,-3.36 -5.52,-3.91c-3.97,-1.58 -3.48,-2.8 1.16,-2.8c4.74,0 6.97,1.03 11.81,5.41c4.35,4.1 4.74,3.36 0.58,-1.21c-1.74,-1.86 -2.9,-3.54 -2.61,-3.73c0.19,-0.19 2.03,0 4.06,0.56c3.68,1.03 5.52,2.33 8.61,6.43c1.65,2.14 1.65,1.4 0.1,-2.42c-0.48,-1.12 -0.19,-1.4 1.16,-1.21c2.13,0.37 6.39,8.39 6.58,12.12c0.1,1.96 0.48,2.24 2.32,1.96c4.45,-0.84 4.45,-0.93 -6.39,-25.82c-2.81,-6.71 -6.29,-14.35 -7.55,-17.15c-2.32,-4.85 -2.52,-7.55 -0.48,-7.55c1.16,0 1.45,0.75 12.1,24.89c4.45,10.25 8.9,19.57 9.77,20.6c1.06,1.12 2.42,1.58 3.77,1.4c2.23,-0.47 2.23,-0.47 0.48,-3.73c-0.97,-1.86 -1.55,-3.73 -1.26,-4.1c0.29,-0.47 6.1,-0.84 13.06,-0.84c11.71,0 15.39,-0.84 10.35,-2.24c-1.26,-0.37 -7.64,-0.93 -14.23,-1.21l-11.9,-0.56l-1.45,-3.36c-0.77,-1.86 -2.32,-5.22 -3.39,-7.55c-1.16,-2.33 -3,-6.52 -4.26,-9.32c-1.16,-2.8 -3.68,-8.57 -5.52,-12.86l-3.29,-7.64l1.84,-8.67c2.13,-9.97 1.84,-14.07 -1.55,-20.32c-1.94,-3.73 -2.23,-5.13 -1.55,-6.99c0.58,-1.3 0.97,-5.41 0.97,-9.23c0,-6.71 0,-6.8 -2.9,-7.83c-2.42,-0.75 -2.9,-1.3 -2.42,-3.08c0.29,-1.21 1.16,-7.64 1.94,-14.35c1.45,-12.86 2.03,-15.29 3.58,-15.29c1.84,0 4.84,-8.48 4.16,-12.02c-1.74,-9.51 -1.65,-13.05 0.39,-15.84c2.32,-3.17 1.94,-5.03 -1.45,-6.43c-2.23,-1.03 -2.32,-1.4 -2.32,-10.9c0,-8.39 0.29,-10.25 1.94,-12.4c2.32,-3.08 2.61,-4.94 1.55,-10.81c-0.68,-3.45 -0.48,-5.69 0.68,-8.85c2.23,-6.34 2.81,-12.12 1.65,-17.8c-1.06,-5.41 -4.74,-13.51 -6.19,-13.51c-0.48,0 -2.23,3.91 -3.97,8.67c-4.55,12.58 -5.71,13.14 -2.42,1.12c1.06,-3.82 1.94,-8.3 1.94,-9.97c0,-2.89 0,-2.89 3.29,-1.96c4.55,1.4 8.81,-0.37 10.16,-4.01c0.48,-1.49 1.74,-2.98 2.71,-3.36c0.97,-0.28 3.48,-2.42 5.71,-4.66c3.29,-3.45 4.35,-4.01 6.48,-3.54c2.9,0.75 3.19,0.09 3.87,-8.76c0.39,-4.57 0.87,-5.5 4.55,-8.76c3.68,-3.36 4.35,-3.63 7.55,-2.89c6.1,1.21 19.06,1.03 19.06,-0.37c0,-0.84 -2.32,-1.3 -8.23,-1.4c-6.1,-0.19 -9.58,-0.84 -13.55,-2.52c-8.32,-3.45 -15.39,-8.11 -21.58,-14.17c-6.58,-6.43 -11.61,-8.85 -24.87,-11.93c-5.03,-1.12 -9.68,-2.42 -10.35,-2.7c-0.77,-0.37 0.1,-2.8 2.9,-7.92c6.97,-12.49 14.32,-15.66 29.03,-12.21c11.9,2.8 26.81,11.18 26.81,15.1c0,0.65 -0.1,1.21 -0.29,1.21c-0.19,0 -7.06,-3.36 -15.39,-7.46c-8.23,-4.01 -15.29,-7.08 -15.68,-6.8c-0.29,0.37 1.35,4.1 3.87,8.48c2.42,4.29 4.26,8.11 4.06,8.48c-0.19,0.37 -6.19,-0.47 -13.35,-1.86c-15.58,-3.08 -20.13,-3.36 -13.06,-0.84c13.45,4.85 47.32,15.84 48.97,15.84c0.97,0 1.84,0.65 1.84,1.4c0,0.75 -0.68,1.4 -1.45,1.4c-2.23,0 -20.71,-3.54 -21.77,-4.19c-2.32,-1.4 -0.68,1.3 2.71,4.38c9.29,8.48 20.61,13.7 29.81,13.79c3.19,0 6.19,-0.28 6.58,-0.65c0.29,-0.37 -2.03,-3.26 -5.32,-6.43l-6,-5.78l-0.29,-9.04c-0.39,-11.09 -2.23,-15.38 -8.81,-20.23c-9,-6.52 -19.06,-9.97 -30.77,-10.72c-6.58,-0.37 -8.32,-0.09 -11.71,1.49l0.02,0.03zm-21.19,27.59c-1.55,1.3 -3.87,2.61 -5.03,2.89c-2.81,0.75 -7.64,-0.37 -6.48,-1.49c1.06,-0.93 9.87,-3.54 12.48,-3.63c1.65,-0.09 1.55,0.28 -0.97,2.24l0,-0.01zm23.71,7.92c1.65,1.58 1.94,2.89 1.65,7.83c-0.29,5.03 0,6.06 1.55,6.99c1.55,1.03 2.81,0.47 9,-4.01l7.16,-5.22l5.52,4.1c3.1,2.24 7.45,4.94 9.77,6.06l4.26,2.05l-4.35,3.91c-4.06,3.63 -4.45,4.29 -5.03,10.16c-0.77,6.99 -1.55,7.55 -6.68,4.94c-3.29,-1.68 -4.26,-1.3 -2.03,0.75c1.84,1.86 1.84,2.52 -0.19,3.91c-1.94,1.4 -6.58,0.19 -7.45,-1.96c-0.29,-0.75 -1.26,-1.3 -2.23,-1.3c-1.16,0 -0.58,0.93 2.03,3.26c3.68,3.26 3.87,5.13 0.48,5.13c-1.26,0 -1.84,0.65 -1.84,2.24c0,2.89 -2.23,4.57 -6,4.57c-5.23,0 -12.39,-8.76 -19.06,-23.58c-0.97,-2.05 -1.06,-1.86 -0.58,1.4c0.19,2.05 1.35,5.5 2.42,7.64c1.06,2.14 1.94,4.1 1.94,4.38c0,0.28 -2.13,1.58 -4.74,2.8c-4.45,2.24 -10.45,7.74 -9.39,8.67c0.29,0.28 1.94,-0.37 3.77,-1.49c1.84,-1.03 3.48,-1.68 3.87,-1.4c1.06,1.03 -9.29,16.96 -11.13,17.06c-0.39,0.09 -0.48,-1.86 -0.1,-4.38c0.29,-3.08 -0.58,-9.79 -3.1,-22.09c-3.19,-15.84 -3.87,-23.67 -2.13,-25.35c0.29,-0.19 1.84,0.28 3.48,1.03c4.16,2.14 8.03,1.86 12.19,-0.93c3.58,-2.33 3.58,-2.33 5.03,-0.47c0.77,1.12 2.32,1.96 3.48,1.86l2.13,0l-2.13,-0.84c-3.19,-1.21 -3.77,-4.94 -1.65,-11c2.9,-8.3 6.19,-10.44 10.06,-6.71l0.02,-0.01zm-34.45,14.63c-1.55,3.54 -1.35,16.22 0.48,29.64c1.06,7.64 1.74,14.17 1.55,14.35c-0.19,0.19 -1.06,-0.37 -1.94,-1.21c-0.87,-0.84 -2.23,-1.49 -3,-1.49c-2.13,0 -8.32,2.61 -10.26,4.38c-2.13,1.86 -2.13,3.17 -0.19,-18.36c1.74,-19.2 3.19,-23.95 8.32,-27.03c4.06,-2.33 6.1,-2.42 5.03,-0.28l0.01,0zm-24.58,1.77c0.87,0.84 1.55,3.73 1.74,7.74l0.39,6.43l-4.26,0.65c-7.64,1.12 -9.77,0.47 -11.9,-3.82c-2.61,-5.13 -4.26,-7.08 -8.03,-9.79l-3.29,-2.24l2.81,-0.65c4.55,-0.93 20.9,0.28 22.55,1.68l-0.01,0zm-24.87,2.24c6.87,4.19 9.87,10.35 9.87,20.5c0,7.74 -2.61,18.64 -4.45,18.64c-0.48,0 -0.77,-4.47 -0.77,-10.07c0.1,-13.89 -1.55,-17.62 -2.32,-5.22c-0.58,9.6 -3.87,22.46 -7.45,29.36c-1.06,1.96 -2.13,3.63 -2.23,3.63c-0.19,0 -0.1,-4.75 0.1,-10.53c0.48,-11.28 -0.58,-18.36 -3.68,-24.42l-1.94,-3.73l0.48,3.26c1.16,7.46 1.65,29.08 0.68,30.01c-0.68,0.65 -1.16,0.28 -1.65,-1.21c-2.03,-7.18 -4.84,-14.82 -5.32,-14.82c-1.06,0 0.97,15.38 2.81,21.34c1.74,5.41 1.84,6.24 0.48,8.57c-0.77,1.49 -1.74,2.7 -2.23,2.7c-0.48,0 -1.74,-2.05 -2.9,-4.57c-1.84,-4.29 -9.29,-11.84 -13.84,-14.17c-1.74,-0.93 -1.84,-0.84 -0.68,1.21c0.68,1.21 3.29,4.47 5.9,7.18c5.13,5.69 6,7.64 2.13,5.22c-2.42,-1.49 -13.45,-4.19 -17.61,-4.19c-4.16,0 -1.26,1.68 5.61,3.26c3.68,0.84 6.77,1.96 6.77,2.42c0,0.47 -2.32,0.84 -5.23,0.84c-5.71,0 -17.61,3.82 -22.64,7.36c-3.68,2.52 -4.06,2.42 -4.06,-0.19c0,-1.21 1.94,-4.29 4.26,-6.99c3,-3.36 4.84,-6.71 6.39,-11.56c2.42,-7.64 5.71,-14.26 8.52,-17.15c1.06,-1.12 4.35,-6.8 7.26,-12.68c5.61,-11.18 12.68,-19.95 18.48,-22.83c2.61,-1.4 10.84,-3.73 13.74,-3.91c0.48,-0.09 3,1.12 5.52,2.7l0,0.04zm37.45,-2.61c0,0.19 -0.97,2.89 -2.23,5.96l-2.13,5.78l-1.55,-5.96l-1.45,-5.96l3.68,0c2.03,0 3.68,0.09 3.68,0.19l0,-0.01zm-11.13,22.56c-1.84,13.42 -6.19,27.59 -11.71,38.12l-1.45,2.52l-4.74,-2.33c-2.71,-1.3 -4.84,-2.61 -4.84,-2.89c0,-0.28 1.35,-2.33 3,-4.66c3.39,-4.85 8.9,-15.29 8.32,-15.84c-0.19,-0.19 -1.94,2.05 -3.87,4.94c-3.97,6.06 -4.55,5.03 -1.55,-2.52c1.26,-3.08 2.32,-8.39 2.71,-13.51l0.58,-8.39l6.29,-0.47c3.48,-0.28 6.68,-0.37 7.06,-0.19c0.48,0.28 0.58,2.52 0.19,5.22l0.01,0zm-70.64,9.13c-0.77,1.68 -3.19,5.31 -5.23,8.02c-2.42,3.08 -4.84,8.11 -6.77,13.89c-2.42,7.27 -3.87,9.79 -7.35,13.42c-4.65,4.75 -5.42,7.83 -3.29,12.3c0.87,1.77 0.68,2.89 -0.48,5.22c-0.87,1.58 -1.94,2.89 -2.32,2.89c-0.39,0 -2.13,-2.33 -3.97,-5.22c-1.74,-2.8 -3.39,-5.03 -3.58,-4.85c-0.58,0.65 4.55,12.12 7.16,16.12c1.45,2.05 4.06,5.5 5.81,7.64c1.84,2.14 3.1,4.38 2.9,4.94c-0.97,2.8 -18.19,-11.74 -24.29,-20.5c-4.06,-5.87 -4.26,-6.8 -1.74,-10.81c1.55,-2.42 9.68,-8.76 11.23,-8.76c0.29,0 0.77,1.68 1.06,3.73c0.97,5.5 1.94,4.57 2.61,-2.33c0.58,-6.24 2.42,-10.63 5.81,-14.26c2.81,-2.89 3.58,-2.61 3.58,1.58c0,6.15 1.45,5.03 2.81,-2.05c1.84,-9.69 3.19,-12.12 10.45,-19.39c6.68,-6.71 8.32,-7.18 5.61,-1.58l-0.01,0zm125.13,4.57c1.06,1.49 0.97,3.26 -0.39,9.79c-1.74,8.2 -2.71,9.6 -3.77,5.13c-0.29,-1.49 -1.45,-3.45 -2.52,-4.38c-1.55,-1.3 -2.23,-1.4 -4.35,-0.47c-1.45,0.56 -2.81,0.84 -3.1,0.56c-0.58,-0.47 11.32,-12.58 12.39,-12.58c0.29,0 1.06,0.84 1.74,1.96l0,-0.01zm-49.35,7.27c-0.19,3.54 0,6.8 0.39,7.18c0.39,0.37 2.32,-0.56 4.26,-1.96c4.94,-3.63 5.71,-2.42 5.71,8.67l-0.1,9.04l2.32,-9.32c1.16,-5.13 2.61,-9.69 3.1,-10.16c1.06,-1.03 2.52,2.24 3.39,8.02c0.58,4.01 0.39,4.57 -2.71,7.83c-1.84,2.05 -4.74,5.87 -6.48,8.48c-2.81,4.47 -3.29,4.85 -5.13,3.82c-2.81,-1.3 -13.26,-8.39 -13.26,-8.85c0,-0.19 1.45,-5.22 3.29,-11.28c1.84,-5.96 3.68,-12.49 4.06,-14.45c0.97,-5.31 1.45,-4.1 1.16,2.98zm60.1,17.15c0.1,6.9 -0.29,8.85 -2.32,12.77c-1.26,2.52 -2.81,4.75 -3.39,5.13c-1.74,1.03 -1.06,2.61 0.87,2.05c2.03,-0.47 3,1.49 3,6.43c0,2.24 -0.97,3.73 -3.97,6.43c-3.1,2.7 -3.68,3.63 -2.71,4.29c0.77,0.47 1.65,0.84 2.13,0.84c0.87,0 0.87,13.23 -0.1,14.63c-1.16,1.77 -6.58,0.09 -6.19,-1.86c0.19,-0.93 -0.19,-1.58 -0.77,-1.58c-0.58,0 -0.1,-1.4 1.16,-3.08l2.23,-2.98l-2.9,1.77c-1.65,1.03 -4.45,2.8 -6.29,4.01c-3.1,1.96 -9.68,2.98 -9.68,1.4c0.1,-0.37 2.61,-2.42 5.61,-4.66c7.64,-5.5 11.32,-8.57 10.16,-8.57c-0.58,0 -2.03,0.75 -3.29,1.68c-5.9,4.38 -11.23,6.52 -17.32,7.08c-3.48,0.28 -5.52,0.28 -4.65,0c0.87,-0.28 3.68,-3.73 6.19,-7.64c2.52,-3.91 5.23,-8.02 6,-9.04c3.39,-4.57 -0.29,3.08 -4.35,9.23l-4.26,6.43l3.68,-0.56c3,-0.47 5.23,-2.14 12.68,-9.32c4.84,-4.85 8.9,-9.23 8.9,-9.88c0,-1.21 -3.58,0.93 -7.55,4.57c-4.65,4.19 -3.29,-0.75 1.65,-5.96c2.23,-2.42 2.32,-2.52 0.39,-1.58c-1.16,0.56 -2.32,1.03 -2.71,1.03c-1.26,0 2.9,-6.34 6.58,-10.07c2.23,-2.14 3.48,-3.91 2.9,-3.91c-0.58,0 -1.55,0.65 -2.23,1.4c-2.32,2.7 -1.94,0.75 1.35,-6.62c1.84,-4.01 3.87,-9.51 4.45,-12.02c1.84,-7.46 2.13,-7.83 3.48,-3.73c0.68,2.05 1.26,7.46 1.26,11.93l0.01,-0.04zm-18.87,-5.59c-0.77,3.45 -10.06,22.28 -11.52,23.21c-1.06,0.84 -6.68,1.03 -7.45,0.28c-0.29,-0.28 0.77,-2.89 2.32,-5.69c3.97,-7.64 3.29,-8.95 -1.16,-2.42c-2.13,3.08 -4.55,6.06 -5.32,6.71c-1.45,1.21 -7.26,0.47 -7.26,-0.93c0,-2.8 14.81,-17.24 16.94,-16.4c0.77,0.28 1.74,-0.65 2.42,-2.24c0.68,-1.49 2.23,-3.36 3.39,-4.1c2.23,-1.4 2.32,-1.3 2.61,1.12c0.39,2.24 0.48,2.33 1.26,0.65c2.13,-4.94 4.94,-5.13 3.77,-0.19zm1.84,6.71c-0.29,0.84 -0.77,1.3 -0.97,1.03c-0.29,-0.28 -0.19,-0.84 0.19,-1.4c0.87,-1.49 1.45,-1.21 0.77,0.37l0.01,0zm-66.97,1.86c5.32,2.7 5.32,2.7 -0.1,9.32c-4.65,5.69 -14.71,15.38 -15.97,15.38c-0.58,0 -1.55,-0.47 -2.23,-1.12c-0.87,-0.84 0.68,-2.89 6.58,-8.76c4.26,-4.29 7.74,-8.2 7.74,-8.76c0,-0.47 -1.26,-1.49 -2.9,-2.33c-3.29,-1.68 -3.29,-1.68 -1.74,-4.19c1.65,-2.42 2.71,-2.33 8.61,0.47l0.01,-0.01zm68.51,6.06c-1.74,2.98 -3.39,5.41 -3.48,5.22c-0.87,-0.84 3.87,-10.81 5.13,-10.81c1.16,0 0.68,1.4 -1.65,5.59zm-102,1.49l2.81,1.77l-4.06,0.28c-5.03,0.37 -5.32,1.49 -0.48,1.77c5.23,0.28 8.9,2.05 10.55,5.13c1.84,3.36 1.16,4.19 -2.03,2.8c-5.32,-2.33 -10.35,-0.56 -18.39,6.52c-7.74,6.8 -9.48,9.88 -9,16.4l0.29,5.31l-2.9,-0.19c-3,-0.19 -7.26,-3.91 -7.26,-6.43c0,-1.49 2.9,-10.16 5.32,-15.56c2.03,-4.75 8.81,-11.74 12.97,-13.42c1.74,-0.75 3,-1.58 2.71,-1.77c-0.29,-0.28 -2.52,0.37 -5.03,1.4c-6.1,2.61 -15.19,11.56 -17.42,17.06c-0.97,2.52 -2.03,4.47 -2.42,4.47c-1.65,0 -5.81,-5.87 -5.81,-8.02c0,-3.08 6.58,-9.79 13.55,-13.89c10.16,-5.96 20.71,-7.36 26.61,-3.63l-0.01,0zm67.35,9.23c2.81,0.75 8.32,1.4 12.19,1.4c6.1,0 7.06,0.19 7.06,1.58c-0.1,3.82 -1.35,4.29 -9.39,3.82c-8.71,-0.65 -15.1,-2.7 -24.58,-8.2c-6.58,-3.73 -7.55,-5.13 -6.1,-8.67c0.39,-1.12 2.23,-0.37 8.13,3.54c4.26,2.8 9.97,5.69 12.68,6.52l0.01,0.01zm22.16,0.47c0,0.47 -0.39,0.93 -0.87,0.93c-0.58,0 -1.26,-0.47 -1.55,-0.93c-0.29,-0.56 0.1,-0.93 0.87,-0.93c0.87,0 1.55,0.37 1.55,0.93zm-77.13,8.3c3.39,2.52 10.06,6.62 14.81,9.04c4.74,2.42 8.81,4.57 9,4.75c0.19,0.09 -0.77,1.4 -2.23,2.8c-4.06,3.82 -5.61,7.46 -4.94,10.72c0.58,2.42 0.48,2.8 -0.87,2.33c-0.87,-0.37 -4.06,-1.21 -7.16,-2.05c-21.39,-5.31 -36.97,-12.21 -36.97,-16.22c0,-2.61 7.35,-11 11.9,-13.61c6.1,-3.54 9.19,-3.08 16.45,2.24l0.01,0zm-72.29,7.74c1.94,3.63 5.42,8.57 7.74,10.81c2.42,2.24 4.16,4.29 3.97,4.47c-0.19,0.19 -1.84,-0.09 -3.68,-0.56c-8.23,-2.33 -8.81,-0.47 -0.87,2.98c6.29,2.7 7.94,4.85 2.71,3.54c-3.39,-0.84 -8.52,-1.3 -12.1,-1.03c-3.87,0.19 -2.42,1.77 2.9,2.89c8.81,2.05 25.06,9.23 29.71,13.14c2.32,1.96 4.65,3.63 5.03,3.63c0.87,0 7.55,8.39 7.55,9.51c0,0.47 -2.32,-1.03 -5.03,-3.45c-10.45,-8.76 -25.64,-13.7 -36,-11.65c-2.9,0.56 -5.9,1.58 -6.87,2.24c-1.45,1.03 -0.48,1.3 6.87,1.77c8.32,0.56 19.16,3.36 21.19,5.5c0.68,0.75 0.29,0.84 -1.45,0.37c-4.35,-1.12 -14.23,-1.77 -16.84,-1.12c-3.19,0.75 -3.29,2.42 -0.19,2.42c4.26,0 17.42,4.57 23.42,8.11c5.9,3.54 12,8.11 12,9.04c0,0.28 -2.42,-0.37 -5.32,-1.3c-2.9,-0.93 -5.32,-1.49 -5.32,-1.21c0,0.37 4.74,5.03 10.45,10.44c9.77,9.23 10.84,10.53 15.58,20.04c8.42,16.68 9.19,20.13 6.48,29.82c-1.06,4.01 -1.35,4.29 -1.84,2.33c-0.39,-1.21 -0.68,-3.73 -0.77,-5.5c-0.19,-7.92 -1.06,-7.46 -8.81,4.29c-8.61,13.05 -16.26,25.44 -16.26,26.28c0,1.49 7.94,-7.18 12.19,-13.33c2.61,-3.73 4.94,-6.71 5.13,-6.52c0.39,0.47 -1.45,8.02 -4.84,19.57c-2.81,9.79 -4.55,18.55 -7.16,37.28c-0.87,6.15 -2.03,13.79 -2.61,16.96c-1.55,8.85 -1.74,8.67 12,8.67c9,0.09 11.42,0.28 10.06,1.03c-2.23,1.3 -26.23,0.75 -27.58,-0.56c-0.48,-0.56 -1.35,-7.27 -1.94,-14.91c-0.58,-7.74 -2.13,-21.53 -3.48,-30.76c-2.32,-16.03 -3.1,-31.13 -1.84,-35.6c0.29,-1.12 2.52,-3.17 4.84,-4.47c3.77,-2.14 7.16,-5.5 7.16,-7.08c0,-0.28 -2.03,0.37 -4.55,1.58c-6,2.8 -7.45,2.8 -8.81,-0.09c-1.65,-3.45 -1.65,-3.45 3,-2.8c4.84,0.65 9.68,-1.03 13.55,-4.75c1.45,-1.4 2.52,-2.61 2.32,-2.8c-0.19,-0.19 -2.61,0.47 -5.32,1.49c-4.65,1.68 -5.32,1.77 -8.52,0.47c-4.16,-1.68 -13.45,-10.53 -22.16,-21.25c-6.58,-8.02 -6.87,-10.16 -0.68,-5.5c3.39,2.52 5.71,3.91 17.13,9.88l4.84,2.61l-8.23,-7.83c-12.87,-12.21 -26.32,-24.05 -27.19,-24.05c-0.97,0 -5.9,-9.41 -5.32,-9.97c0.19,-0.19 4.06,1.3 8.71,3.45c4.65,2.05 8.71,3.73 9.1,3.73c0.39,0 -4.06,-3.08 -9.97,-6.8l-10.64,-6.71l-0.77,-5.13c-1.45,-10.07 0.58,-22.74 5.71,-36.82c2.03,-5.5 6.68,-13.51 7.74,-13.51c0.19,0 1.94,2.98 3.87,6.71l0.01,0.01zm128.13,14.73c0,1.12 -6.19,1.12 -9.68,0c-1.84,-0.56 -0.87,-0.75 3.68,-0.84c3.39,-0.09 6,0.28 6,0.84zm39.39,4.19c2.61,0.75 5.52,2.14 6.48,3.08c1.94,2.14 1.06,5.22 -1.26,4.38c-0.87,-0.37 -2.23,-0.93 -3,-1.21c-0.77,-0.28 -0.29,0.84 1.26,2.52c1.45,1.68 2.61,3.36 2.61,3.73c0,1.68 -1.35,1.77 -3.68,0.28c-1.94,-1.21 -4.74,-1.58 -12.77,-1.58c-9.1,0 -10.74,0.28 -15.39,2.52c-5.61,2.61 -7.45,2.61 -6,-0.09c1.35,-2.33 9.68,-6.43 16.16,-7.92c3.97,-0.84 5.23,-1.49 4.06,-1.96c-1.84,-0.75 -11.81,1.77 -15.1,3.91c-2.81,1.68 -3.1,1.49 -2.42,-1.86c1.16,-5.87 17.42,-9.13 29.03,-5.78l0.02,-0.02zm-38.42,2.8c0,1.03 -1.16,1.4 -4.74,1.4c-6.29,0 -7.35,-1.68 -1.35,-2.14c2.61,-0.19 4.94,-0.37 5.42,-0.47c0.39,-0.09 0.68,0.47 0.68,1.21l-0.01,0zm2.9,11.18c0,6.52 -1.16,7.83 -2.81,2.98c-1.45,-4.1 -0.39,-9.04 1.94,-9.04c0.48,0 0.87,2.7 0.87,6.06zm34.35,-0.47c5.32,2.42 7.94,5.31 8.61,9.32c1.06,5.5 -0.48,6.15 -4.84,2.05c-8.42,-8.2 -26.03,-7.74 -32.32,0.75c-2.23,2.98 -2.32,2.98 -3.1,1.03c-1.84,-4.94 2.32,-9.97 10.55,-12.58c9.39,-2.89 15.77,-3.08 21.1,-0.56l0,-0.01zm-52.55,10.07c2.71,0.65 3.39,1.58 6.29,8.57c1.84,4.38 3.87,9.13 4.65,10.72c3.39,7.27 8.13,19.48 7.74,19.95c-0.39,0.37 -8.52,-6.62 -14.03,-12.02c-0.29,-0.28 -6.29,-5.69 -13.26,-12.02c-13.84,-12.3 -15,-14.35 -10.35,-17.34c1.35,-0.84 3.1,-2.98 3.87,-4.75l1.45,-3.26l5.32,4.66c2.9,2.61 6.68,5.03 8.32,5.5l0,-0.01zm21.48,22.56c6.58,15.1 14.23,32.43 16.94,38.59c3.58,7.92 4.94,12.21 4.94,15.29c0,2.52 -0.39,3.91 -0.87,3.45c-0.77,-0.84 -6.68,-14.07 -13.16,-29.36c-1.26,-2.8 -6.39,-15.01 -11.61,-27.03c-5.13,-12.02 -9.77,-23.11 -10.26,-24.61c-0.87,-2.8 -0.39,-4.57 1.16,-4.1c0.58,0.19 6.39,12.68 12.87,27.77l-0.01,0zm30,-19.67c2.32,2.05 2.52,2.89 2.52,9.79c0,4.19 -0.48,12.86 -1.06,19.48c-1.16,11.65 -1.16,11.84 -3.68,12.4c-1.35,0.28 -3.97,1.12 -5.71,1.86c-4.45,1.86 -4.94,1.68 -6.58,-2.05c-1.84,-4.19 -6.19,-30.85 -6.19,-37.84c0,-6.24 0.1,-6.24 10.84,-6.06c6.39,0.19 7.74,0.47 9.87,2.42l-0.01,0zm-64.93,12.77c5.23,4.47 9.29,8.2 9.1,8.39c-0.1,0.19 -2.9,-0.75 -6.19,-1.96c-3.19,-1.3 -8.81,-2.7 -12.39,-3.17c-3.58,-0.47 -6.68,-1.12 -6.97,-1.4c-0.29,-0.28 2.13,-0.75 5.42,-1.12c3.29,-0.28 5.9,-0.93 5.9,-1.3c0,-0.37 -1.45,-1.4 -3.19,-2.14c-2.71,-1.3 -3.97,-1.3 -9.19,-0.28c-3.29,0.65 -6,0.84 -6,0.47c0,-0.47 10.84,-4.75 13.55,-5.41c0.29,0 4.84,3.54 9.97,7.92l-0.01,0zm40.93,-0.47c1.55,3.08 2.71,10.9 1.45,9.69c-0.48,-0.56 -1.55,-2.8 -2.32,-5.13c-0.87,-2.33 -1.84,-4.94 -2.23,-5.96c-1.06,-2.61 1.74,-1.4 3.1,1.4zm-17.23,20.97c7.94,7.18 9,9.41 2.32,5.03c-5.23,-3.36 -16.06,-7.74 -25.35,-10.16l-7.26,-1.96l11.42,0.28l11.42,0.19l7.45,6.62zm-18.97,34.49c2.9,1.49 8.52,1.4 12.68,-0.19c0.97,-0.28 1.65,-0.09 1.65,0.47c0,0.56 -2.42,2.14 -5.32,3.54c-2.9,1.4 -5.32,2.89 -5.32,3.36c0,1.3 8.61,0 11.23,-1.68c2.61,-1.58 3.29,-1.77 3.29,-0.56c0,1.21 -10.45,5.96 -17.71,8.11l-5.71,1.68l0.58,3.26c0.97,6.15 5.9,6.34 16.06,0.56c3.97,-2.24 7.35,-3.91 7.64,-3.63c0.29,0.19 -2.32,3.17 -5.81,6.52c-7.35,7.18 -6.58,6.43 -14.13,15.56c-9.19,11 -16.74,24.61 -16.74,30.01c0,1.86 10.16,5.31 17.13,5.87c3.39,0.19 5.81,0.75 5.52,1.21c-1.45,2.24 -20.71,-0.65 -24.68,-3.73l-2.03,-1.58l3.48,-10.63c4.26,-13.33 10.26,-41.48 10.26,-48.75c0,-2.89 0.29,-5.31 0.77,-5.31c0.39,0.09 1.74,0.65 3.1,1.4c5.81,3.17 6.97,0.75 2.13,-4.47c-2.81,-2.89 -2.32,-3.17 1.94,-1.03l-0.01,0.01zm63.29,10.81c-1.26,9.41 -3.19,18.08 -3.97,17.34c-0.29,-0.28 0.1,-3.36 0.87,-6.9c0.77,-3.54 1.74,-8.39 2.03,-10.9c0.29,-2.42 0.87,-4.38 1.16,-4.38c0.29,0 0.29,2.24 -0.1,4.85l0.01,-0.01zm-29.61,88.45c4.16,1.21 9.58,5.03 8.52,5.96c-0.58,0.56 -6.39,-0.56 -17.9,-3.45c-2.32,-0.56 -4.16,-1.3 -4.16,-1.77c0,-1.77 8.32,-2.24 13.55,-0.75l-0.01,0.01zm-82.26,4.94c0,0.28 -1.94,1.77 -4.35,3.45c-2.42,1.68 -4.35,3.73 -4.35,4.57c0,1.58 4.65,6.15 11.32,11.09c3.77,2.7 4.74,2.98 12.39,3.26c8.52,0.28 10.64,0.93 8.23,2.42c-2.03,1.3 -16.16,1.12 -18.68,-0.19c-1.16,-0.56 -4.06,-2.61 -6.48,-4.57c-4.16,-3.36 -13.74,-8.3 -16.16,-8.3c-1.94,0 -4.16,-2.8 -4.16,-5.31c0,-2.33 0.1,-2.33 1.74,-0.93c2.52,2.24 3.58,1.96 11.81,-2.14c6.97,-3.54 8.71,-4.19 8.71,-3.36l-0.02,0.01zm37.16,25.07c1.55,1.12 1.55,1.3 0.19,2.42c-1.35,1.12 -18.1,2.8 -17.03,1.68c0.58,-0.65 12.68,-5.13 14.13,-5.22c0.48,-0.09 1.74,0.47 2.71,1.12z" id="svg_22" transform="matrix(1 0 0 1 0 0)"/>
   <path d="m523.02,356.67c-2.81,1.12 -5.61,10.53 -3.1,10.53c0.58,0 0.97,-0.47 0.97,-0.93c0,-0.56 0.68,-0.93 1.45,-0.93c1.06,0 1.16,0.47 0.48,2.33c-0.58,1.49 -0.58,2.33 0,2.33c0.48,0 1.16,-1.12 1.45,-2.61c0.29,-1.4 0.97,-3.73 1.45,-5.22c0.58,-1.68 0.58,-3.26 -0.1,-4.38c-0.48,-1.03 -1.06,-1.77 -1.16,-1.68c-0.1,0 -0.77,0.28 -1.45,0.56l0.01,0zm1.74,2.98c0,1.21 -2.81,3.26 -3.58,2.61c-0.68,-0.75 1.45,-3.45 2.71,-3.45c0.48,0 0.87,0.37 0.87,0.84z" id="svg_23" transform="matrix(1 0 0 1 0 0)"/>
   <path d="m547.11,370.56c-1.45,0.65 9,5.87 11.81,5.96c2.42,0 2.03,-2.52 -0.77,-4.29c-2.52,-1.58 -8.81,-2.52 -11.03,-1.68l-0.01,0.01z" id="svg_24" transform="matrix(1 0 0 1 0 0)"/>
   <path d="m546.53,376.52c1.35,4.19 2.32,6.52 2.81,6.52c1.06,0 5.42,-2.24 5.42,-2.7c0,-0.28 -0.97,-1.12 -2.13,-1.86c-1.26,-0.75 -3.29,-1.96 -4.55,-2.8c-2.23,-1.4 -2.23,-1.3 -1.55,0.84z" id="svg_25" transform="matrix(1 0 0 1 0 0)"/>
   <path d="m402.73,588c-12,16.4 -17.71,25.91 -17.13,28.71c0.39,1.96 9.58,-11.09 16.06,-22.83c4.55,-8.2 5.13,-11.46 1.06,-5.87l0.01,-0.01z" id="svg_26" transform="matrix(1 0 0 1 0 0)"/>
   <path d="m786.34,329.08c-1.74,0.47 -3.19,1.21 -3.19,1.68c0,1.3 6.68,5.78 13.45,9.13l6.39,3.08l-4.84,0c-3.1,0 -7.16,-1.03 -11.32,-2.7c-6.77,-2.8 -7.45,-2.89 -5.32,-0.47c3.29,3.82 6.48,6.34 10.84,8.57c3.97,1.96 6.19,2.42 12.58,2.42c7.26,0.09 16.94,-1.68 16.94,-3.08c0,-0.37 -1.45,-1.4 -3.29,-2.24c-1.84,-0.75 -6.39,-4.29 -10.16,-7.83c-10.35,-9.41 -13.94,-10.81 -22.06,-8.57l-0.02,0.01z" id="svg_27" transform="matrix(1 0 0 1 0 0)"/>
   <path d="m649.31,396.75c-0.19,0.37 -0.97,2.33 -1.55,4.19c-1.35,3.91 -2.52,4.47 -3.48,1.58c-0.39,-1.21 0,-2.52 1.06,-3.73c2.52,-2.7 0.29,-2.14 -2.9,0.75c-5.61,5.03 -8.61,15.75 -6.39,23.58c0.87,2.98 2.61,5.5 6.19,8.95c4.94,4.47 5.13,4.94 6.77,13.05c0.87,4.57 1.84,9.04 2.13,9.88c0.29,0.93 0.1,1.68 -0.48,1.68c-0.48,0 -1.26,-1.96 -1.55,-4.47c-0.97,-6.62 -2.32,-9.41 -7.06,-13.89c-6.97,-6.43 -19.26,-11.09 -27.77,-10.35l-3.48,0.28l5.9,9.04c8.32,12.77 17.03,19.76 28.84,23.21c2.23,0.65 4.45,1.58 4.94,2.14c0.87,1.03 3.97,16.4 3.97,19.67c0,2.98 -1.65,0.37 -3.29,-5.31c-0.87,-3.08 -2.9,-6.9 -4.65,-8.67c-5.52,-6.15 -24.87,-13.42 -32.9,-12.4l-2.61,0.28l4.55,7.27c8.71,13.61 17.32,20.13 29.32,22.09l6.48,1.12l1.16,6.24c1.26,7.08 0.97,16.12 -0.48,15.75c-0.48,-0.19 -0.97,-2.7 -0.97,-5.59c0,-6.52 -1.74,-8.67 -6.1,-7.74c-2.71,0.56 -2.81,0.75 -1.84,3.26c1.45,3.54 -0.1,5.31 -3.1,3.82c-2.13,-1.12 -3,-6.62 -1.06,-6.62c0.58,0 0.97,-0.47 0.97,-0.93c0,-0.56 -0.68,-0.93 -1.45,-0.93c-1.65,0 -3.58,3.17 -3.19,5.41c0.19,1.12 -0.39,1.58 -2.13,1.77c-1.35,0 -2.9,0.09 -3.58,0.19c-2.03,0.19 -4.16,2.98 -4.16,5.5c0,1.49 -0.77,2.98 -1.94,3.73c-2.32,1.4 -2.42,3.08 -0.39,7.27c1.55,3.08 1.45,3.17 -1.06,5.31c-2.32,1.86 -2.52,2.42 -1.55,4.1c0.87,1.58 0.58,2.89 -1.35,6.99c-2.9,5.96 -3,8.57 -0.48,13.14c3.58,6.43 2.03,5.96 -4.06,-1.21c-7.74,-9.32 -12.58,-16.5 -12.19,-18.27c0.19,-0.93 1.94,-2.52 3.87,-3.36c3.87,-1.77 6.77,-5.22 8.42,-10.07c0.87,-2.8 4.84,-22.46 4.94,-24.42c0,-1.49 -16.74,9.23 -19.16,12.21c-2.42,2.98 -2.61,3.91 -2.61,11.93c0,4.75 -0.1,8.67 -0.19,8.67c-0.19,0 -1.35,-2.05 -2.61,-4.47c-3.1,-5.87 -5.81,-15.1 -4.74,-16.12c0.39,-0.37 2.71,-1.77 5.13,-2.98c5.52,-2.8 8.32,-7.18 14.03,-21.62c2.42,-6.06 4.35,-11.18 4.35,-11.37c0,-0.84 -3,0 -7.26,1.96c-5.61,2.42 -14.9,10.35 -18,15.19c-1.16,1.77 -2.42,5.59 -2.71,8.48l-0.68,5.31l-1.74,-3.73c-1.55,-3.45 -1.55,-4.1 -0.19,-8.3c2.03,-6.06 1.94,-9.51 -0.68,-14.82c-1.94,-4.1 -11.03,-15.38 -12.39,-15.47c-0.39,-0.09 -0.97,4.47 -1.35,10.07c-0.87,13.61 0.58,18.45 7.16,22.93c4.26,2.98 7.64,7.55 6.39,8.67c-0.29,0.28 -1.45,-0.37 -2.71,-1.49c-3,-2.7 -6.77,-3.91 -12.29,-3.91c-5.13,0 -17.42,3.26 -17.42,4.66c0,1.58 14.23,10.16 18.48,11.18c4.06,0.93 9.77,0.09 15.48,-2.24c1.35,-0.56 2.61,1.21 6.48,9.13c2.71,5.41 6.48,12.12 8.42,15.01c3.87,5.5 3.97,6.9 0.39,5.13c-3,-1.58 -13.55,-0.65 -17.42,1.49c-3.48,2.05 -12.97,13.23 -12,14.17c0.39,0.37 5.61,0.84 11.81,0.93c12.29,0.37 18.39,-0.93 24,-5.03l3,-2.24l4.84,5.41c2.61,2.89 5.03,5.41 5.42,5.59c2.03,0.84 0.39,2.05 -2.81,2.05c-4.65,0 -8.71,2.42 -13.16,7.64c-3.29,3.82 -6,8.95 -5.23,9.69c0.19,0.19 5.9,0 12.68,-0.47c10.26,-0.65 12.87,-1.12 15.19,-2.8l2.71,-1.96l4.06,6.71c5.61,9.23 6.58,11.74 4.74,12.86c-2.71,1.68 -4.74,1.03 -5.42,-1.68c-0.97,-4.29 -2.61,-6.71 -4.94,-7.27c-3,-0.75 -4.94,0.93 -5.71,4.85c-0.77,4.19 -1.74,4.01 -3.19,-0.56c-1.06,-3.45 -1.45,-3.73 -4.65,-3.73c-3.39,0 -3.39,0 -2.81,3.26c1.06,5.22 -2.42,3.73 -3.77,-1.68c-0.39,-1.4 -1.16,-2.52 -1.65,-2.52c-0.58,0 -0.68,0.65 -0.39,1.49c0.97,2.52 -0.29,3.08 -3.29,1.58c-1.55,-0.75 -3.87,-1.21 -5.03,-0.93c-2.03,0.28 -1.94,0.47 0.97,1.49c1.65,0.65 3.1,1.4 3.1,1.68c0,0.28 -1.06,1.3 -2.42,2.24l-2.32,1.86l3.1,4.19c1.65,2.24 3.97,4.38 5.03,4.66c3.68,0.84 4.35,3.36 1.84,6.24c-1.26,1.4 -2.61,2.52 -3,2.52c-0.48,0 -5.71,-4.75 -11.71,-10.53c-11.42,-11 -11.71,-11.56 -6.19,-13.23c4.16,-1.21 9.68,-7.92 11.9,-14.35c1.16,-3.36 3,-8.02 3.97,-10.25c0.97,-2.24 1.55,-4.29 1.35,-4.57c-1.06,-1.03 -14.81,5.03 -18.29,8.11c-4.35,3.82 -7.35,9.41 -7.45,13.79c0,4.29 -1.35,4.47 -4.26,0.47c-2.13,-3.08 -2.42,-3.91 -1.55,-6.71c1.55,-5.22 1.16,-10.16 -1.06,-13.14c-2.03,-2.8 -14.81,-12.02 -16.64,-12.02c-1.55,0 -0.29,18.64 1.55,22c1.45,2.7 8.23,6.9 11.03,6.9c0.48,0 2.61,2.33 4.55,5.13c3.48,5.03 3.48,6.9 0.1,3.26c-3.97,-4.19 -12.77,-3.26 -19.35,2.14c-2.13,1.77 -4.94,3.45 -6.29,3.73c-1.35,0.37 -3.48,1.49 -4.84,2.42l-2.42,1.77l2.42,0.56c1.35,0.28 6.29,1.4 11.03,2.52c11.42,2.61 18.39,2.14 21.58,-1.4c1.26,-1.4 2.23,-3.36 2.23,-4.38c0,-2.89 1.94,-2.05 6.87,3.08l4.65,4.94l-4.65,0.56c-2.42,0.37 -5.52,0.84 -6.68,1.21c-2.52,0.84 -10.64,9.41 -13.55,14.35l-2.13,3.63l13.84,-0.47c15.48,-0.47 19.64,-1.68 21.39,-5.96c0.58,-1.4 1.45,-2.61 2.03,-2.61c0.48,0 5.13,3.63 10.16,8.11c5.03,4.38 11.23,9.69 13.84,11.74c2.52,2.05 4.55,4.01 4.55,4.38c0,0.37 -2.13,0.47 -4.74,0.19c-7.06,-0.65 -14.61,2.89 -18.48,8.76c-1.55,2.42 -2.9,4.85 -2.9,5.22c0,0.37 4.94,0.75 10.94,0.75c9.29,0 11.71,-0.37 16.64,-2.33l5.81,-2.33l2.13,2.14c3,2.98 11.9,15.84 11.42,16.5c-0.29,0.37 -3.39,0.75 -6.97,0.75c-3.58,0.09 -10.35,0.65 -15,1.21l-8.42,1.12l-9.68,-3.91c-9.1,-3.63 -21.29,-6.99 -22.16,-6.15c-1.45,1.3 1.26,3.08 5.52,3.54c2.71,0.28 5.71,1.03 6.68,1.49c1.35,0.84 1.16,1.03 -1.74,1.68c-3.1,0.65 -2.9,0.75 2.9,1.21l6.29,0.47l-4.35,1.58l-4.35,1.49l8.13,-0.47c9,-0.65 9.77,0.28 2.52,2.98c-2.52,0.84 -4.35,1.77 -4.16,1.96c0.29,0.19 5.42,-0.75 11.52,-1.96c6.77,-1.49 15.87,-2.61 23.61,-2.98l12.58,-0.56l2.13,4.29c1.16,2.24 2.42,5.78 2.81,7.74c0.58,3.08 0.48,3.36 -1.06,2.8c-5.61,-2.05 -10.06,-2.33 -14.42,-0.93c-2.42,0.84 -4.45,1.86 -4.45,2.33c0,0.47 -0.68,0.84 -1.45,0.84c-0.77,0 -1.45,-0.47 -1.45,-0.93c0,-1.3 -3.58,-1.12 -4.55,0.19c-0.39,0.65 -0.97,3.08 -1.26,5.41c-0.48,3.91 -0.68,4.19 -3.1,3.91c-1.74,-0.19 -3,0.37 -4.06,1.77l-1.55,2.14l-2.52,-2.33l-2.52,-2.24l-2.81,3.08c-1.55,1.68 -2.81,3.63 -2.81,4.38c0,1.77 -1.84,1.77 -3.87,0c-1.45,-1.3 -1.74,-1.3 -2.9,0c-0.68,0.75 -2.13,1.4 -3.29,1.4c-4.06,0 -7.94,3.26 -9.29,7.83c-0.68,2.42 -1.94,4.66 -2.71,5.13c-1.35,0.75 -1.65,3.54 -0.97,11.28c0.19,2.61 -0.19,4.94 -0.77,4.38c-0.29,-0.28 -2.32,0.47 -4.45,1.77l-3.77,2.33l-11.13,-3.73c-10.74,-3.54 -11.23,-3.63 -14.61,-2.33c-3.48,1.4 -3.68,1.4 -11.81,-2.33c-7.74,-3.45 -21.39,-7.55 -25.45,-7.55c-3.39,0 -1.74,-1.68 3.1,-3.26c2.61,-0.84 5.03,-1.86 5.32,-2.24c0.77,-1.3 -2.71,-3.63 -6.87,-4.66c-6.19,-1.58 -23.52,-3.82 -28.93,-3.73c-3.77,0.09 -2.03,0.56 7.94,2.24c18.48,3.17 23.52,4.19 23.52,5.13c0,0.47 -2.81,1.68 -6.29,2.8c-3.48,1.12 -6.48,2.33 -6.77,2.8c-0.29,0.37 4.26,1.77 10.06,3.08c8.42,1.96 27.48,8.2 28.93,9.51c0.19,0.19 -0.58,0.84 -1.74,1.4c-1.74,0.93 -3.77,0.47 -12.39,-2.61c-12.1,-4.38 -23.9,-6.71 -33,-6.62l-6.39,0.09l8.52,1.3c9.87,1.49 20.71,4.1 30.19,7.27l6.77,2.24l-2.9,1.12c-2.23,0.84 -4.55,0.93 -10.16,0.09c-13.64,-2.05 -36,-3.26 -41.13,-2.24c-4.45,0.84 -3.77,0.93 8.71,1.58c20.9,1.03 35.9,3.08 39,5.22c3.19,2.24 11.03,3.73 16.16,3.08c2.13,-0.28 11.23,0.28 20.32,1.12c26.13,2.42 67.55,0.56 114.38,-5.13c17.71,-2.24 21.19,-2.89 33.19,-6.62c14.52,-4.57 40.06,-17.24 53.71,-26.66c1.84,-1.21 1.74,-1.3 -0.97,-0.75c-7.84,1.58 -7.94,1.58 -3.87,-0.84c2.13,-1.3 4.35,-2.42 5.03,-2.42c0.58,0 1.45,-0.47 1.84,-1.03c0.97,-1.58 -3.19,-0.47 -14.52,3.91l-9.58,3.63l-2.13,-1.86c-1.84,-1.68 -2.52,-1.77 -4.65,-0.84c-2.03,0.93 -2.81,0.84 -4.06,-0.37c-1.16,-1.12 -2.13,-1.3 -3.97,-0.65c-3.58,1.3 -3.97,1.21 -4.74,-1.68c-0.68,-2.7 -5.03,-7.64 -6.68,-7.64c-0.58,0 -2.13,0.84 -3.48,1.86c-3.19,2.42 -5.32,2.33 -7.16,-0.19c-0.97,-1.21 -2.61,-2.14 -4.16,-2.14c-2.32,-0.09 -2.71,-0.65 -3,-3.08c-0.68,-6.06 -7.84,-7.64 -13.45,-2.98c-2.03,1.77 -2.71,2.8 -1.74,2.8c0.77,0 1.45,0.37 1.45,0.93c0,0.47 -0.87,0.93 -1.94,0.93c-1.06,0 -1.94,-0.56 -1.94,-1.3c0,-0.65 -0.87,-2.33 -2.03,-3.73c-1.55,-1.86 -2.81,-2.42 -5.81,-2.42c-3.29,0 -3.77,-0.28 -3.77,-2.14c0,-2.7 4.45,-11.74 6,-12.21c0.68,-0.28 3.77,-0.65 6.87,-0.93c4.16,-0.28 5.52,-0.19 5.23,0.65c-0.29,0.84 1.94,1.03 8.61,0.84c9.77,-0.37 11.71,0.65 5.13,2.52c-6.29,1.86 -3.68,2.24 4.35,0.65c8.23,-1.68 20.32,-2.05 18,-0.56c-0.77,0.47 -2.32,0.93 -3.48,0.93c-1.06,0 -2.71,0.56 -3.68,1.21c-1.45,1.03 0.1,1.03 8.32,0c12.68,-1.58 21.29,-0.47 12.19,1.58c-3.48,0.84 -3.48,0.75 8.9,1.3c1.65,0 3.29,0.65 3.68,1.21c0.39,0.65 4.16,1.77 8.23,2.52c4.16,0.75 7.94,1.68 8.42,1.96c0.58,0.28 0.97,0.37 0.97,0c0,-0.93 -6.19,-4.19 -8.03,-4.19c-0.97,0 -3.19,-1.03 -4.94,-2.33c-4.45,-3.26 -15.1,-6.52 -26.9,-8.3c-12.77,-1.86 -35.61,-4.29 -41.03,-4.29c-2.23,0 -4.35,-0.37 -4.65,-0.75c-0.29,-0.47 0.97,-2.24 2.81,-3.91l3.29,-2.98l4.16,1.86c4.35,1.96 8.23,2.52 17.23,2.24l5.32,-0.19l-5.03,-2.8c-4.55,-2.52 -7.16,-4.66 -5.61,-4.66c1.16,0 6.77,3.08 10.06,5.5c5.32,3.91 3,0.19 -2.61,-4.29c-2.71,-2.14 -6.87,-4.47 -9.1,-5.03c-2.32,-0.65 -4.35,-1.3 -4.55,-1.49c-0.77,-0.56 6.1,-5.78 7.55,-5.87c0.77,0 2.81,1.12 4.65,2.42c4.84,3.54 12.48,6.62 20.61,8.2c3.97,0.75 7.35,1.21 7.55,1.12c0.19,-0.19 -0.39,-1.96 -1.26,-3.91c-3.97,-9.23 -10.74,-13.79 -20.52,-13.79c-3.39,-0.09 -6.1,-0.28 -6.1,-0.65c0,-0.28 1.45,-1.86 3.29,-3.54l3.29,-3.08l4.74,1.68c3.29,1.3 7.06,1.77 12.87,1.68c13.35,-0.09 22.26,-0.65 22.74,-1.4c0.68,-1.03 -6,-6.06 -11.03,-8.39c-5.71,-2.61 -13.06,-2.05 -20.81,1.4c-3.1,1.4 -5.9,2.33 -6.1,2.05c-0.29,-0.28 0.48,-2.14 1.65,-4.1l2.23,-3.73l9.87,0c9.97,0.09 13.55,-0.56 11.03,-2.14c-2.13,-1.21 -0.29,-2.05 1.94,-0.84c1.16,0.56 2.52,0.75 3.19,0.37c0.68,-0.37 0,-1.21 -1.74,-2.05c-3.48,-1.77 -1.74,-2.52 2.9,-1.3c4.45,1.21 5.52,0.09 1.35,-1.4l-3.19,-1.21l4.65,0.37c4.84,0.37 6.39,-0.93 1.94,-1.58c-1.94,-0.28 -1.55,-0.37 1.35,-0.56c6,-0.19 5.9,-1.68 -0.29,-2.89c-8.42,-1.68 -16.06,0.37 -24.77,6.9c-2.61,1.86 -4.65,3.17 -4.65,2.89c0,-0.19 1.35,-3.08 3,-6.24l3,-5.87l6.87,0c4.94,0 6.87,-0.37 6.77,-1.12c-0.19,-0.75 0.87,-1.12 3.1,-1.03c3.97,0.09 5.71,-0.93 2.61,-1.77c-1.16,-0.28 -2.13,-0.84 -2.13,-1.3c0,-1.12 1.65,-1.03 4.06,0.19c1.26,0.65 2.32,0.65 2.9,0.09c0.58,-0.56 0,-1.12 -1.55,-1.49c-1.35,-0.28 -2.52,-1.03 -2.52,-1.49c0,-0.47 0.58,-0.75 1.26,-0.56c3.19,1.03 7.45,1.4 7.45,0.65c0,-0.37 -1.45,-1.21 -3.1,-1.77c-3,-1.03 -3,-1.03 1.65,-0.75c2.71,0.28 4.26,0.19 3.68,-0.09c-2.23,-0.84 -1.26,-2.14 1.55,-2.14c1.65,0 3.1,-0.37 3.48,-0.84c0.68,-1.12 -5.52,-2.89 -9.97,-2.89c-3.58,0 -14.32,3.26 -16.26,4.94c-5.52,4.75 -6,4.38 -3.58,-2.33c1.74,-4.75 1.94,-4.94 5.61,-5.22c6.48,-0.37 10.16,-1.12 10.16,-2.14c0,-0.56 -0.87,-0.75 -1.94,-0.37c-1.06,0.28 -1.94,0.19 -1.94,-0.28c0,-1.12 3.29,-1.96 7.74,-2.14c2.71,0 3,-0.19 1.45,-0.75c-1.74,-0.65 -1.65,-0.84 1.16,-2.24c1.74,-0.93 3.77,-1.58 4.74,-1.58c0.97,0 1.35,-0.47 0.97,-1.4c-0.29,-0.75 0,-1.4 0.68,-1.4c0.68,0 1.94,-0.84 2.9,-1.86c1.45,-1.68 1.45,-1.96 0.19,-2.42c-2.03,-0.84 -10.35,0.28 -15.87,2.05c-2.42,0.84 -6.29,3.17 -8.71,5.31l-4.16,3.91l0.68,-4.19c0.87,-5.41 1.55,-6.06 7.35,-7.92c5.32,-1.77 7.74,-3.91 3.19,-2.89c-2.03,0.47 -2.42,0.37 -1.35,-0.37c0.77,-0.47 2.52,-0.93 3.87,-0.93c1.35,0 3.1,-0.47 3.87,-1.03c1.26,-0.84 1.16,-0.93 -0.19,-0.47c-0.97,0.28 -1.94,0.09 -2.23,-0.28c-0.68,-1.12 2.03,-2.05 3.87,-1.4c0.77,0.37 1.45,0.09 1.45,-0.47c0,-0.56 -0.68,-1.03 -1.45,-1.03c-3,0 -1.35,-1.86 1.74,-1.96c1.65,0 2.52,-0.28 1.94,-0.56c-1.94,-0.75 -1.45,-2.14 0.68,-2.14c1.06,0 1.94,-0.47 1.94,-1.12c0,-0.56 0.77,-1.86 1.74,-2.89c1.65,-1.86 1.55,-1.86 -3.97,-1.21c-8.61,0.93 -15.1,4.85 -18.97,11.56c-0.48,0.84 -1.26,1.21 -1.65,0.84c-0.39,-0.37 0.29,-2.98 1.55,-5.87c1.26,-2.98 1.84,-5.5 1.26,-5.87c-1.16,-0.75 -1.55,-5.96 -0.29,-5.22c0.58,0.28 0.97,-0.37 0.97,-1.58c0,-2.61 -5.52,-11.28 -6.68,-10.53c-1.65,0.93 -3.97,9.13 -3.97,13.79c0,3.17 0.77,5.96 2.52,8.95c1.84,3.36 2.42,5.5 2.13,8.95l-0.29,4.47l-6.29,3.08c-3.39,1.68 -7.35,3.91 -8.71,5.03c-1.35,1.03 -6.29,4.85 -11.13,8.3c-4.74,3.54 -10.26,7.92 -12,9.79c-4.84,4.75 -5.52,4.19 -1.65,-1.58c1.74,-2.61 5.9,-9.04 9.19,-14.26l5.9,-9.41l4.55,0.37c4.06,0.37 5.32,0 10.45,-3.17c5.13,-3.17 5.52,-3.54 3.39,-3.82c-1.35,-0.19 -3.48,-1.12 -4.84,-2.14l-2.42,-1.77l3.77,-3.17c2.9,-2.42 3.58,-3.45 3,-5.13c-0.39,-1.21 -1.74,-2.24 -3.48,-2.61c-1.55,-0.28 -3,-1.3 -3.29,-2.24c-0.68,-1.96 -3.39,-2.33 -5.03,-0.75c-0.77,0.75 -1.65,0.65 -3.29,-0.47c-3.48,-2.24 -4.55,-1.86 -5.71,2.24c-0.97,3.26 -2.9,5.22 -2.9,2.8c0,-0.47 -0.87,-1.3 -2.03,-1.86c-2.32,-1.3 -4.74,0.19 -4.74,2.89c0,1.96 -0.77,2.14 -4.26,0.84l-2.42,-0.84l2.03,-4.75c1.74,-4.1 2.52,-4.75 6,-5.78c4.84,-1.3 10.06,-4.85 11.42,-7.83c0.87,-1.77 1.84,-2.24 4.65,-2.24c6.68,0 14.03,-1.86 22.55,-5.78c7.64,-3.45 8.42,-4.1 6.87,-5.13c-3.48,-2.42 -12.39,-5.03 -17.71,-5.03c-9,-0.19 -13.16,1.58 -20.81,8.67c-3.77,3.45 -6.97,6.15 -7.06,5.96c-0.77,-0.75 5.61,-13.42 8.23,-16.4c2.81,-3.36 2.9,-3.36 9.58,-2.98c8.42,0.47 17.52,-2.33 26.42,-8.2c6.68,-4.38 14.52,-10.9 14.52,-12.21c0,-1.4 -11.23,-2.89 -19.35,-2.52c-12.19,0.65 -20.13,5.31 -24.97,14.82c-2.52,4.85 -6.68,9.88 -7.55,9.04c-0.29,-0.37 0.39,-3.45 1.55,-6.99c1.74,-4.94 3.1,-7.08 6.1,-9.6c16.45,-13.61 22.06,-22.83 24.39,-40.36c0.77,-5.31 0.29,-5.41 -7.35,-1.49c-6.87,3.54 -18.29,14.45 -18.29,17.52c0,2.7 -1.84,0.28 -5.61,-7.64l-4.16,-8.57l-1.84,3.26c-0.97,1.86 -2.32,5.96 -3,9.23c-1.16,5.03 -1.06,6.62 0.39,11.84c0.87,3.36 3,7.92 4.74,10.35c5.52,7.27 5.42,7.18 3.77,13.33c-1.55,5.78 -3,7.36 -3,3.26c0,-8.85 -11.13,-15.84 -24.1,-15.19c-6.58,0.28 -6.97,0.19 -6.39,-1.58c2.23,-6.43 3.39,-11.56 3.39,-14.35c0,-2.33 1.16,-4.85 3.77,-8.48c3.39,-4.66 8.81,-15.47 8.81,-17.52c0,-1.12 -7.06,0.19 -13.35,2.42c-15.39,5.69 -24.29,15.56 -24.39,27.22c-0.1,7.64 -2.03,3.63 -2.61,-5.59c-0.77,-9.97 -0.29,-11.18 6,-15.29c7.26,-4.85 15.77,-13.89 19.64,-20.88c3.19,-5.78 7.26,-16.03 6.58,-16.68c-0.19,-0.19 -3.19,0.65 -6.77,1.96c-6.68,2.42 -13.16,6.34 -16.74,9.97c-3.68,3.82 -8.13,14.35 -8.71,20.41c-0.58,6.15 -1.65,7.18 -2.61,2.7c-1.35,-6.62 -0.68,-10.53 2.61,-15.29c4.94,-6.99 6.77,-13.51 6.29,-21.06c-0.29,-3.82 -1.26,-7.46 -2.32,-9.32c-1.94,-3.17 -7.64,-7.08 -8.42,-5.78l-0.03,-0.05zm4.16,3.91c0,1.96 -1.26,3.82 -2.52,3.82c-1.65,0 -1.65,-0.47 -0.39,-2.89c1.06,-1.86 2.9,-2.42 2.9,-0.93l0.01,0zm-9.87,5.87c0.68,0.65 1.16,2.14 1.16,3.45c0,2.14 -0.1,2.24 -1.94,0.56c-1.06,-0.93 -1.94,-2.42 -1.94,-3.45c0,-1.96 1.06,-2.14 2.71,-0.56l0.01,0zm12.29,-0.28c0.68,1.12 -3.19,4.75 -5.03,4.75c-3,0 -0.39,-3.36 4.26,-5.5c0.1,-0.09 0.39,0.28 0.77,0.75zm-13.35,6.8c2.32,2.05 3,4.47 1.16,4.47c-2.42,0 -4.74,-2.05 -4.74,-4.19c0,-2.89 0.68,-2.89 3.58,-0.28zm13.84,0.28c0,1.49 -5.61,4.66 -6.58,3.73c-0.77,-0.65 4.16,-5.13 5.71,-5.13c0.48,0 0.87,0.65 0.87,1.4zm-12.58,9.41c0,2.52 -0.68,2.7 -3,1.03c-1.74,-1.3 -3,-4.19 -2.32,-5.41c1.06,-1.49 5.32,2.05 5.32,4.38zm13.06,-3.36c0.77,1.21 -3.19,4.85 -5.03,4.47c-2.71,-0.47 -2.52,-2.42 0.39,-3.91c3.19,-1.68 3.87,-1.77 4.65,-0.56l-0.01,0zm13.16,10.44c-3.19,3.26 -6.87,7.08 -8.23,8.67c-1.35,1.49 -2.52,2.33 -2.52,1.77c0,-1.21 14.32,-16.22 15.58,-16.22c0.48,0 -1.65,2.61 -4.84,5.78l0.01,0zm-26.23,-1.96c1.16,1.96 1.26,3.63 0.19,3.63c-0.68,0 -4.06,-4.85 -4.06,-5.96c0,-1.12 3,0.65 3.87,2.33zm12.58,-2.33c0,1.03 -3.29,5.96 -3.97,5.96c-0.39,0 -1.06,-0.93 -1.45,-2.05c-0.39,-1.4 -0.1,-2.33 1.16,-3.26c1.74,-1.21 4.26,-1.68 4.26,-0.65zm22.26,-0.09c0,1.68 -10.35,14.82 -15.39,19.57c-7.16,6.71 -7.84,5.03 -1.35,-3.36c8.03,-10.25 16.74,-18.64 16.74,-16.22l0,0.01zm-58.55,9.6c0.48,1.12 1.65,2.33 2.52,2.52c2.03,0.65 5.23,4.01 4.45,4.75c-1.16,1.12 -4.16,-0.75 -6.48,-4.01c-4.16,-5.96 -4.26,-6.15 -2.81,-5.69c0.77,0.19 1.74,1.3 2.32,2.42l0,0.01zm13.55,5.78c1.65,3.08 1.74,3.73 0.68,3.73c-0.77,0 -4.06,-4.85 -4.06,-5.96c0,-1.58 2.03,-0.19 3.39,2.24l-0.01,-0.01zm6.19,6.71c0.1,0.47 -0.29,0.75 -0.77,0.75c-1.26,0 -3.1,-5.59 -2.32,-6.8c0.48,-0.84 2.9,3.73 3.1,6.06l-0.01,-0.01zm-5.61,0.56c1.84,1.86 5.03,4.66 7.06,6.24c2.03,1.49 3.29,2.89 2.61,3.08c-1.55,0.47 -10.74,-4.57 -10.74,-6.06c0,-0.65 -0.58,-1.21 -1.26,-1.21c-1.35,0 -6.48,-4.75 -6.48,-5.96c0,-1.77 5.61,0.75 8.81,3.91zm11.03,3.17c0.39,1.49 0.29,2.61 -0.29,2.61c-0.48,0 -1.35,-1.77 -1.94,-3.82c-0.87,-3.36 -0.87,-3.73 0.29,-2.61c0.77,0.75 1.65,2.42 1.94,3.82zm34.55,2.8c-0.68,0.65 -1.16,0.75 -1.16,0.19c0,-1.3 1.16,-2.42 1.84,-1.77c0.19,0.28 -0.1,1.03 -0.68,1.58zm6.1,-0.28c-0.29,0.56 -1.06,1.03 -1.65,1.03c-0.58,0 -0.58,-0.56 0.19,-1.4c1.35,-1.58 2.52,-1.21 1.45,0.37l0.01,0zm44.52,10.53c-6.1,13.14 -13.06,23.3 -13.06,19.2c0,-1.12 6.87,-13.7 14.23,-25.72c4.16,-6.99 3.58,-3.54 -1.16,6.52l-0.01,0zm-54.68,-8.76c0,0.47 -0.68,1.58 -1.45,2.61c-1.35,1.77 -1.35,1.77 -1.45,-0.19c0,-1.03 0.29,-2.24 0.68,-2.52c0.87,-0.93 2.23,-0.84 2.23,0.09l-0.01,0.01zm7.16,3.08c-1.65,1.77 -5.23,2.42 -5.23,1.03c0,-1.03 5.13,-3.82 6.1,-3.26c0.48,0.28 0.1,1.3 -0.87,2.24l0,-0.01zm-108.77,9.13c0.68,2.8 1.35,7.18 1.45,9.79c0.1,2.61 0.48,5.5 0.97,6.34c1.26,2.8 -1.26,1.86 -2.81,-1.03c-2.42,-4.47 -3.48,-10.81 -2.81,-16.87c0.68,-6.34 1.35,-5.96 3.19,1.77l0.01,0zm93.97,-3.36c-0.77,0.75 -1.06,0.65 -1.06,-0.37c0,-0.84 0.29,-1.77 0.68,-2.14c0.39,-0.37 0.87,-0.19 1.06,0.37c0.29,0.65 -0.1,1.58 -0.68,2.14zm10.55,-0.75c-1.45,1.4 -3.29,2.33 -5.03,2.33c-3.48,0 -2.71,-1.49 1.55,-3.36c4.84,-1.96 6.1,-1.68 3.48,1.03zm-98.32,6.06c2.52,4.47 3.29,11.65 1.26,11.65c-0.68,0 -5.52,-11.74 -7.26,-17.71c-0.48,-1.77 -0.39,-1.77 1.45,-0.19c1.06,0.84 3.1,3.73 4.55,6.24l0,0.01zm47.03,-5.13c1.26,1.3 2.03,2.52 1.74,2.8c-0.19,0.28 -1.65,-0.84 -3.19,-2.33c-1.55,-1.58 -2.32,-2.8 -1.84,-2.8c0.58,0 2.03,1.03 3.29,2.33zm-2.9,1.4c2.9,2.33 3.1,2.8 1.45,2.8c-2.52,0 -6.29,-2.52 -6.29,-4.29c0,-1.86 1.06,-1.58 4.84,1.49zm83.8,1.86c0.48,2.24 0.29,2.98 -0.39,2.33c-0.48,-0.56 -1.26,-2.42 -1.65,-4.19c-0.48,-2.33 -0.39,-2.98 0.39,-2.33c0.58,0.56 1.35,2.42 1.65,4.19zm3.68,3.08c0.87,3.54 1.55,6.99 1.55,7.83c0,3.08 -1.06,0.28 -2.81,-7.64c-1.06,-4.47 -1.55,-7.83 -1.06,-7.36c0.48,0.47 1.55,3.73 2.32,7.18l0,-0.01zm-79.74,-3.45c0,0.75 -0.39,1.12 -0.97,0.84c-0.48,-0.28 -0.97,-0.93 -0.97,-1.49c0,-0.47 0.48,-0.84 0.97,-0.84c0.58,0 0.97,0.65 0.97,1.49zm4.74,1.86c2.42,3.91 1.74,5.59 -0.97,2.33c-1.55,-1.86 -2.61,-5.69 -1.45,-5.69c0.19,0 1.35,1.49 2.42,3.36zm27.19,-2.24c0,1.77 -1.74,4.01 -2.42,3.36c-0.39,-0.28 -0.19,-1.49 0.48,-2.52c1.16,-2.24 1.94,-2.52 1.94,-0.84zm11.61,0.56c0,1.03 -12.68,8.76 -13.35,8.2c-0.77,-0.75 5.52,-7.08 8.03,-8.02c2.52,-1.03 5.32,-1.12 5.32,-0.19l0,0.01zm-44.9,4.1c2.32,1.12 4.26,2.33 4.26,2.8c0,1.49 -6.48,0.75 -7.94,-0.93c-3.97,-4.47 -2.81,-5.03 3.68,-1.86l0,-0.01zm12,1.68c0.58,1.03 0.77,2.42 0.39,2.98c-0.48,0.75 -0.97,0.47 -1.45,-0.75c-1.55,-3.82 -0.77,-5.5 1.06,-2.24l0,0.01zm-36.39,7.18c-1.55,4.01 -3.68,8.2 -4.84,9.32c-1.26,1.12 -1.65,2.24 -1.06,2.42c0.58,0.19 -0.58,1.49 -2.52,2.89c-4.55,3.36 -6.48,2.8 -3.19,-1.03c1.35,-1.58 2.52,-3.36 2.52,-3.91c0,-0.56 0.87,-1.49 1.94,-2.14c1.06,-0.65 1.94,-1.77 1.94,-2.42c0,-0.65 1.16,-3.36 2.52,-6.06c5.13,-9.79 6.48,-9.41 2.71,0.93l-0.02,0zm104.13,-2.89c0.68,1.86 0.97,3.54 0.68,3.82c-0.58,0.56 -4.55,-6.52 -4.55,-8.2c0,-2.05 2.81,1.03 3.87,4.38zm-32.9,-3.45c0,0.84 -2.71,3.82 -3.39,3.82c-0.29,0 0.1,-1.03 0.68,-2.33c1.06,-2.33 2.71,-3.17 2.71,-1.49zm-30,5.5c0,1.12 -0.29,1.12 -1.45,0.19c-0.77,-0.65 -1.45,-2.05 -1.45,-3.17c0.1,-1.96 0.1,-1.96 1.45,-0.19c0.77,1.03 1.45,2.42 1.45,3.17zm25.16,-3.82c0,1.3 -1.84,3.54 -2.42,2.98c-0.77,-0.75 0.48,-3.63 1.55,-3.63c0.48,0 0.87,0.28 0.87,0.65zm-34.55,1.49c1.74,0.75 3.68,1.96 4.45,2.8c1.16,1.4 1.06,1.58 -0.97,1.58c-3,-0.09 -10.55,-3.36 -10.55,-4.66c0,-1.3 3.29,-1.21 7.06,0.28l0.01,0zm24.58,3.26c-1.35,1.4 -3.48,4.57 -4.65,7.18c-2.32,5.03 -3.48,4.47 -1.94,-0.93c0.48,-1.86 0.68,-4.01 0.48,-4.66c-0.39,-0.84 0.97,-1.96 3.68,-3.17c2.23,-0.93 4.35,-1.58 4.55,-1.4c0.29,0.19 -0.68,1.58 -2.13,2.98l0.01,0zm-63.58,1.21c0,0.93 -0.39,1.77 -0.97,1.77c-0.48,0 -0.97,-1.12 -0.97,-2.42c0,-1.3 0.39,-2.14 0.97,-1.77c0.58,0.28 0.97,1.4 0.97,2.42zm74.61,1.12c-2.81,2.7 -3.48,1.49 -0.87,-1.68c1.35,-1.68 2.23,-2.24 2.52,-1.49c0.19,0.65 -0.48,2.05 -1.65,3.17zm-76.84,2.8c-0.58,1.77 -2.13,0.56 -2.42,-1.86c-0.19,-2.52 -0.19,-2.52 1.26,-0.75c0.77,0.93 1.35,2.14 1.16,2.61zm69.1,3.08c-1.55,3.08 -2.9,4.85 -3,4.1c0,-2.24 4.65,-10.72 5.52,-9.97c0.19,0.28 -0.87,2.89 -2.52,5.87zm-71.71,0.47c0,0.93 -0.39,1.77 -0.87,1.77c-0.97,0 -2.03,-3.36 -1.35,-4.1c0.97,-0.93 2.23,0.47 2.23,2.33l-0.01,0zm76.74,0.09c-1.74,1.68 -3.48,2.7 -3.77,2.33c-0.97,-0.93 3.48,-5.31 5.32,-5.31c1.06,0 0.58,0.93 -1.55,2.98zm23.9,11.93c2.03,1.03 6,2.33 8.71,2.89c4.55,0.93 4.84,1.12 4.26,3.45c-0.29,1.4 -3.48,8.2 -6.97,15.1c-5.52,10.72 -6.87,12.58 -8.9,12.86c-2.23,0.28 -2.42,-0.09 -2.52,-3.36c-0.1,-3.26 0.19,-3.82 3.1,-5.13c1.94,-0.93 3.97,-2.98 5.23,-5.22c2.42,-4.66 2.42,-4.66 -0.39,-5.69c-1.74,-0.65 -2.23,-1.3 -1.84,-2.8c0.39,-1.49 0,-2.14 -1.55,-2.52c-1.16,-0.28 -2.03,-1.21 -1.94,-2.05c0.29,-2.7 -0.1,-3.82 -1.16,-3.82c-0.58,0 -0.77,0.84 -0.39,1.96c0.48,1.21 0.19,2.33 -0.58,2.8c-2.03,1.21 -2.71,0.09 -2.13,-3.54l0.58,-3.36l-3.97,0.65c-2.23,0.28 -4.06,0.28 -4.06,-0.09c0,-0.47 -0.48,-1.4 -0.97,-2.14c-0.77,-1.12 -1.55,-0.75 -4.55,2.05c-2.03,1.96 -4.06,3.54 -4.65,3.63c-0.48,0.19 -2.13,0.93 -3.58,1.68c-3.48,1.96 -3.58,5.59 -0.29,11.09c1.35,2.24 2.13,4.47 1.84,5.03c-0.58,0.84 -1.74,0.75 -8.61,-0.75c-5.71,-1.21 -6.48,-5.69 -1.35,-7.55c3.58,-1.3 3.77,-4.57 0.39,-6.06c-2.9,-1.21 -3.29,-4.47 -0.58,-4.47c2.42,0 11.81,-9.04 15.1,-14.35l2.52,-4.19l7.74,5.96c4.16,3.36 9.39,6.9 11.52,7.92l-0.01,0.02zm55.64,-10.63c-5.03,4.19 -16.26,9.51 -21.77,10.25c-2.42,0.37 -4.16,0.37 -3.87,0.09c1.16,-1.21 26.71,-13.7 28.06,-13.61c0.87,0 -0.19,1.3 -2.42,3.26l0,0.01zm-6.29,-1.03c-0.68,0.75 -1.55,1.4 -2.03,1.4c-0.48,0 -5.52,2.05 -11.13,4.66c-11.03,5.03 -11.42,5.13 -10.55,3.73c0.87,-1.3 5.23,-3.45 15.48,-7.55c10.16,-4.1 9.77,-4.01 8.23,-2.24zm-49.35,1.4c0,0.47 -0.39,0.93 -0.97,0.93c-0.48,0 -0.97,-0.47 -0.97,-0.93c0,-0.56 0.48,-0.93 0.97,-0.93c0.58,0 0.97,0.37 0.97,0.93zm-1.94,2.98c0,0.56 -0.58,0.47 -1.45,-0.19c-0.77,-0.65 -1.45,-1.3 -1.45,-1.49c0,-0.19 0.68,-0.09 1.45,0.19c0.77,0.37 1.45,1.03 1.45,1.49zm7.55,-0.28c0.29,0.75 -0.1,1.12 -0.87,0.84c-0.68,-0.19 -1.45,-0.93 -1.65,-1.58c-0.29,-0.75 0.1,-1.12 0.87,-0.84c0.68,0.19 1.45,0.93 1.65,1.58zm-32.71,0.84c0,1.12 -4.74,5.22 -5.32,4.66c-0.68,-0.65 3.29,-5.41 4.45,-5.41c0.48,0 0.87,0.37 0.87,0.75zm37.35,2.7c-0.68,0.65 -2.52,-0.65 -2.52,-1.77c0,-0.56 0.58,-0.56 1.45,0.19c0.87,0.65 1.26,1.4 1.06,1.58l0.01,0zm-89.71,2.33c-0.68,1.21 -1.16,2.8 -1.06,3.54c0.19,1.4 -3.48,4.29 -4.35,3.45c-0.19,-0.28 0.48,-1.4 1.55,-2.42c1.06,-1.03 1.55,-2.14 0.97,-2.42c-0.48,-0.37 0,-1.77 1.26,-3.45c2.32,-3.17 3.58,-2.14 1.65,1.3l-0.02,0zm45.29,-1.86c-0.29,0.75 -0.58,0.47 -0.58,-0.56c-0.1,-1.03 0.19,-1.58 0.48,-1.21c0.29,0.28 0.39,1.12 0.1,1.77zm-90.68,0.84c0,0.47 -0.39,0.84 -0.97,0.84c-0.48,0 -0.97,-0.65 -0.97,-1.49c0,-0.75 0.48,-1.12 0.97,-0.84c0.58,0.28 0.97,0.93 0.97,1.49zm78.77,-0.47c0.87,2.24 0.68,5.03 -0.39,5.03c-0.97,0 -2.9,-3.82 -2.9,-5.69c0,-1.4 2.61,-0.93 3.29,0.65l0,0.01zm52.55,-0.09c1.94,0.75 3.19,1.68 2.9,1.96c-0.77,0.75 -7.45,-1.49 -7.45,-2.52c0,-1.12 0.48,-1.12 4.55,0.56zm-127.45,1.4c0,0.47 -0.19,0.93 -0.39,0.93c-0.29,0 -0.77,-0.47 -1.06,-0.93c-0.29,-0.56 -0.1,-0.93 0.39,-0.93c0.58,0 1.06,0.37 1.06,0.93zm4.65,0.84c0.29,0.75 -0.1,1.12 -0.87,0.84c-0.68,-0.19 -1.45,-0.93 -1.65,-1.58c-0.29,-0.75 0.1,-1.12 0.87,-0.84c0.68,0.19 1.45,0.93 1.65,1.58zm29.71,1.03c0.29,0.56 -0.1,1.21 -0.97,1.49c-0.97,0.37 -1.26,1.21 -0.97,2.24c0.77,2.42 -1.16,3.17 -2.42,0.93c-0.87,-1.49 -0.77,-2.05 0.48,-2.42c0.77,-0.28 1.45,-1.12 1.45,-1.86c0,-1.49 1.55,-1.77 2.42,-0.37l0.01,-0.01zm-42.1,0.93c0,0.47 -0.68,0.93 -1.45,0.93c-0.77,0 -1.45,-0.47 -1.45,-0.93c0,-0.56 0.68,-0.93 1.45,-0.93c0.77,0 1.45,0.37 1.45,0.93zm66.48,5.87c0.58,3.82 -0.68,4.57 -3.77,1.86c-2.03,-1.68 -2.32,-6.43 -0.48,-7.08c1.84,-0.65 3.58,1.49 4.26,5.22l-0.01,0zm5.9,-4.38c2.81,1.86 3.1,8.11 0.48,7.64c-1.94,-0.28 -5.61,-6.71 -4.65,-8.2c0.77,-1.3 1.65,-1.21 4.16,0.56l0.01,0zm8.71,3.91c-0.48,5.5 -2.71,4.85 -2.71,-0.75c0,-4.29 0.19,-4.75 1.55,-3.73c0.87,0.84 1.35,2.42 1.16,4.47l0,0.01zm-77.22,-4.1c0,0.28 -0.39,0.75 -0.97,1.03c-0.48,0.28 -0.97,0.09 -0.97,-0.37c0,-0.56 0.48,-1.03 0.97,-1.03c0.58,0 0.97,0.19 0.97,0.37zm108.77,1.12c0.58,1.49 -3,8.76 -4.35,8.76c-1.45,0 -1.94,-3.73 -0.77,-5.78c2.52,-4.66 4.06,-5.59 5.13,-2.98l-0.01,0zm7.35,1.12c0,1.96 -4.55,8.57 -5.81,8.57c-1.35,0 -1.26,-0.47 1.06,-5.69c2.03,-4.47 4.74,-6.15 4.74,-2.89l0.01,0.01zm-82.45,3.73c0.39,2.33 -1.26,2.8 -2.13,0.56c-0.87,-2.33 -0.68,-3.36 0.68,-2.98c0.58,0.28 1.26,1.3 1.45,2.42zm9.48,-0.19c-1.06,3.91 -4.55,10.63 -5.61,10.63c-0.58,0 -0.29,-1.03 0.48,-2.24c0.87,-1.12 1.84,-3.82 2.23,-5.78c0.58,-3.08 1.74,-4.94 3.19,-5.03c0.19,0 0,1.12 -0.29,2.42zm57.48,3.08c0,7.18 -1.84,8.57 -4.45,3.26c-1.65,-3.36 -1.65,-3.45 0.48,-5.13c3.29,-2.52 3.97,-2.24 3.97,1.86l0,0.01zm-61.35,-0.19c-0.97,0.93 -1.84,-0.47 -0.97,-1.68c0.58,-1.03 0.77,-1.03 1.16,0c0.19,0.65 0.1,1.4 -0.19,1.68zm48.77,-0.19c2.13,2.52 -0.19,3.63 -4.26,2.24c-3.58,-1.3 -4.35,-2.24 -2.23,-2.98c2.42,-1.03 5.32,-0.65 6.48,0.75l0.01,-0.01zm-28.55,1.03c1.26,1.21 4.35,7.18 4.35,8.39c0,0.19 -0.87,0.37 -2.03,0.37c-2.81,0 -7.64,-4.94 -7.64,-7.83c0,-2.8 2.81,-3.36 5.32,-0.93zm63.77,-0.28c1.55,1.12 1.45,1.3 -0.77,3.36c-1.35,1.3 -3.1,1.96 -3.87,1.68c-1.55,-0.56 -2.13,-4.47 -0.87,-5.59c0.97,-1.03 3.68,-0.75 5.52,0.56l-0.01,-0.01zm-91.35,2.14c0,0.75 -0.39,1.12 -0.97,0.84c-0.48,-0.28 -0.97,-0.93 -0.97,-1.49c0,-0.47 0.48,-0.84 0.97,-0.84c0.58,0 0.97,0.65 0.97,1.49zm40.16,1.4c0.87,2.61 -2.13,5.96 -4.06,4.47c-1.35,-1.12 -1.74,-4.75 -0.58,-5.78c1.35,-1.3 4.06,-0.56 4.65,1.3l-0.01,0.01zm43.45,-0.37c0.77,1.86 -2.23,6.15 -4.65,6.62c-1.94,0.37 -1.94,-0.75 -0.19,-4.94c1.55,-3.45 3.87,-4.29 4.84,-1.68zm-32.32,1.12c0,1.4 -5.42,5.69 -7.35,5.69c-0.97,0 -0.29,-3.45 1.16,-5.41c1.84,-2.61 6.19,-2.8 6.19,-0.28zm23.81,1.4c0.58,2.52 -1.16,6.52 -2.52,5.69c-1.84,-1.12 -2.71,-3.73 -1.84,-5.87c1.06,-2.7 3.58,-2.61 4.35,0.19l0.01,-0.01zm55.55,-1.3c0,0.47 -0.87,0.93 -2.03,0.93c-1.06,0 -1.65,-0.47 -1.35,-0.93c0.29,-0.56 1.26,-0.93 2.03,-0.93c0.77,0 1.35,0.37 1.35,0.93zm6.87,0.56c-1.74,0.75 -3.97,1.21 -4.84,1.03c-2.13,-0.47 2.42,-2.42 5.71,-2.42c2.23,0.09 2.13,0.19 -0.87,1.4l0,-0.01zm-42.19,0.37c0.87,1.4 -5.71,7.46 -8.13,7.46c-1.16,0 -2.13,-0.47 -2.13,-0.93c-0.1,-0.56 -0.19,-1.3 -0.29,-1.86c-0.1,-0.75 7.55,-5.31 9.29,-5.5c0.39,-0.09 0.97,0.37 1.26,0.84l0,-0.01zm29.71,2.98c-0.87,0.84 -1.45,0.84 -2.32,0c-0.87,-0.84 -0.68,-1.12 1.16,-1.12c1.84,0 2.03,0.28 1.16,1.12zm-75.1,6.71c-1.45,2.33 -3,4.29 -3.58,4.29c-3.19,0 -1.16,-8.02 2.42,-9.32c3.48,-1.3 3.87,0.56 1.16,5.03zm-22.45,-2.05c1.45,2.24 -0.48,3.91 -3.58,3.17c-2.52,-0.56 -4.06,-2.89 -3,-4.38c0.87,-1.4 5.42,-0.56 6.58,1.21zm12.29,0.93c2.13,3.73 -3.39,6.06 -7.06,2.89c-2.32,-2.05 -2.23,-3.91 0.39,-4.85c2.9,-1.03 5.42,-0.28 6.68,1.96l-0.01,0zm69.58,1.77c-4.74,3.73 -6.1,3.26 -1.55,-0.56c2.13,-1.77 4.06,-2.98 4.35,-2.7c0.29,0.28 -0.97,1.77 -2.81,3.26l0.01,0zm-49.93,-2.33c3.58,1.3 0.97,4.1 -3.77,4.1c-2.81,0 -3.97,-1.49 -2.42,-3.26c1.26,-1.49 3.68,-1.77 6.19,-0.84zm22.16,0.75c0.68,1.77 -1.74,3.73 -3.68,2.98c-1.74,-0.65 -1.94,-2.98 -0.19,-3.63c2.13,-0.93 3.39,-0.65 3.87,0.65zm-11.9,0.56c0,1.4 -4.84,5.59 -6.39,5.59c-2.32,0 -2.52,-2.05 -0.29,-4.29c2.13,-2.24 6.68,-3.08 6.68,-1.3zm5.03,3.63c1.74,2.98 1.45,3.82 -1.35,3.82c-1.35,0 -1.74,-0.75 -1.74,-3.26c0,-4.01 0.97,-4.1 3.1,-0.56l-0.01,0zm-42.77,2.8c0,1.86 -3.77,4.75 -6.29,4.75c-2.81,0 -2.81,-2.8 0,-5.59c2.13,-2.14 3.1,-2.52 4.45,-1.77c1.06,0.47 1.84,1.68 1.84,2.61zm-8.9,-1.12c-0.48,2.33 -2.71,2.61 -2.71,0.37c0,-1.12 0.58,-1.96 1.55,-1.96c0.87,0 1.35,0.65 1.16,1.58l0,0.01zm37.55,0.37c0.29,0.56 0,2.05 -0.68,3.36c-0.87,1.58 -0.97,2.7 -0.29,3.82c0.77,1.12 0.68,2.42 -0.29,4.66c-1.26,2.89 -1.16,3.73 0.77,9.32c1.16,3.45 2.71,7.08 3.39,8.11c1.55,2.05 1.84,12.21 0.48,12.96c-0.87,0.56 -3,-6.24 -7.45,-24.14c-1.94,-7.92 -2.32,-10.53 -1.45,-11.84c0.77,-1.21 0.77,-2.24 0.1,-3.54c-0.48,-0.93 -0.97,-2.14 -0.97,-2.7c0,-1.3 5.52,-1.3 6.39,0l0,-0.01zm-18.97,2.61c0,2.98 -2.13,5.22 -4.35,4.38c-1.74,-0.65 -1.94,-5.78 -0.19,-6.43c3.1,-1.3 4.55,-0.65 4.55,2.05l-0.01,0zm11.23,-0.37c2.61,3.91 -0.68,5.87 -3.97,2.33c-1.84,-1.96 -1.35,-4.66 0.87,-4.66c0.87,0 2.23,1.03 3.1,2.33zm16.84,-0.47c0,0.47 -0.39,0.93 -0.97,0.93c-0.48,0 -0.97,-0.47 -0.97,-0.93c0,-0.56 0.48,-0.93 0.97,-0.93c0.58,0 0.97,0.37 0.97,0.93zm-1.84,2.14c1.84,1.4 3.19,4.94 2.03,5.59c-0.39,0.28 -2.61,-0.28 -4.84,-1.21c-3.77,-1.68 -5.03,-3.45 -3.39,-4.94c0.97,-1.03 4.55,-0.65 6.19,0.56l0.01,0zm17.32,-0.47c0,1.4 -3.68,4.1 -4.74,3.45c-0.58,-0.28 -1.06,-1.4 -1.06,-2.42c0,-1.3 0.68,-1.77 2.9,-1.77c1.65,0 2.9,0.37 2.9,0.75l0,-0.01zm-39.68,2.61c0,1.3 -0.39,2.14 -0.97,1.77c-0.48,-0.28 -0.97,-1.4 -0.97,-2.42c0,-0.93 0.48,-1.77 0.97,-1.77c0.58,0 0.97,1.12 0.97,2.42zm-57.68,-0.93c2.52,0.93 1.74,2.52 -0.87,1.86c-1.35,-0.37 -2.42,-0.28 -2.42,0.19c0,0.47 -1.74,1.4 -3.97,2.05c-5.61,1.77 -5.61,2.89 0.1,1.4c6.97,-1.77 14.52,-2.61 14.52,-1.68c0,0.75 -6.1,2.42 -18.58,5.22c-2.52,0.56 -4.94,0.65 -5.32,0.28c-0.39,-0.37 1.06,-2.33 3.29,-4.38c2.9,-2.61 4.94,-3.63 7.06,-3.63c1.55,0 2.9,-0.47 2.9,-0.93c0,-1.03 1.06,-1.21 3.29,-0.37l0,-0.01zm6.1,0c-0.29,0.28 -1.16,0.37 -1.84,0.09c-0.77,-0.28 -0.48,-0.56 0.58,-0.56c1.06,-0.09 1.65,0.19 1.26,0.47zm83.9,0.93c1.26,3.17 0.68,5.03 -1.74,5.03c-2.42,0 -3.87,-2.7 -2.81,-5.22c0.68,-1.77 3.77,-1.68 4.55,0.19zm13.64,-0.56c0.97,1.49 -1.45,3.73 -3.97,3.73c-2.71,0 -3.1,-2.24 -0.58,-3.63c2.13,-1.21 3.77,-1.3 4.55,-0.09l0,-0.01zm47.81,5.31c-0.1,4.1 -0.29,4.85 -0.87,3.08c-1.16,-3.36 -1.16,-8.39 0,-8.39c0.58,0 0.97,2.33 0.87,5.31zm-103.93,-0.56c0,1.58 -4.16,3.63 -5.9,2.98c-1.84,-0.65 -1.65,-3.08 0.29,-5.13c1.35,-1.49 1.84,-1.58 3.58,-0.37c1.16,0.65 2.03,1.86 2.03,2.52zm80.8,0.93c0,1.49 -0.48,2.7 -0.97,2.7c-1.45,0 -3.29,-4.29 -2.52,-6.06c0.97,-2.42 3.48,0.09 3.48,3.36l0.01,0zm6.87,-1.68c-0.87,2.24 -3.97,3.36 -3.97,1.49c0,-1.58 3,-4.66 3.97,-4.01c0.39,0.19 0.39,1.4 0,2.52zm-74.22,0.28c0.68,1.77 -0.19,3.45 -1.45,2.7c-1.16,-0.75 -1.16,-4.19 0,-4.19c0.48,0 1.16,0.65 1.45,1.49zm-6.19,2.14c1.55,2.8 1.16,4.38 -1.45,7.27c-2.32,2.52 -2.42,2.61 -3.87,0.84c-1.84,-2.33 -1.84,-5.22 0.1,-7.83c1.84,-2.52 3.87,-2.61 5.23,-0.28l-0.01,0zm63.68,2.33c-0.19,1.12 -0.97,1.96 -1.74,1.96c-1.55,0 -2.42,-2.61 -1.55,-4.85c0.87,-2.14 3.68,0.37 3.29,2.89zm23.42,-1.96c0,1.77 -0.97,2.52 -2.52,1.86c-2.03,-0.75 -1.65,-3.08 0.58,-3.08c1.06,0 1.94,0.56 1.94,1.21l0,0.01zm-133.93,0.56c-0.77,1.12 -4.45,1.96 -4.45,1.03c0,-0.47 0.77,-1.03 1.74,-1.21c2.81,-0.75 3.19,-0.65 2.71,0.19l0,-0.01zm73.45,1.03c0,1.77 -3.1,2.33 -4.84,0.93c-2.32,-1.86 -1.65,-2.89 1.74,-2.61c1.94,0.19 3.1,0.75 3.1,1.68zm21.29,0.47c0,1.49 -0.77,1.96 -3.39,2.14c-3.77,0.28 -7.45,-1.68 -6.39,-3.45c0.48,-0.65 2.52,-1.03 5.23,-0.84c3.77,0.28 4.55,0.56 4.55,2.14l0,0.01zm-38.22,2.7c1.06,3.82 0.97,4.29 -1.45,7.92c-1.45,2.05 -3,3.82 -3.39,3.82c-1.16,0 -0.48,-11.37 0.87,-13.79c1.65,-2.98 2.61,-2.52 3.97,2.05zm72.58,-1.77c0,2.05 -4.65,4.75 -6,3.45c-1.45,-1.4 -0.29,-3.82 2.32,-4.75c2.61,-0.93 3.68,-0.56 3.68,1.3zm-166.84,2.33c5.71,4.1 7.84,6.99 6.1,8.02c-0.58,0.28 -2.13,-0.56 -3.39,-2.05c-2.81,-3.36 -3,-1.58 -0.39,3.36c1.06,2.05 1.94,4.19 1.94,4.85c0,2.24 -3.68,-2.52 -6.29,-8.11c-2.32,-5.22 -2.42,-5.31 -1.94,-1.86c0.39,2.05 1.45,5.31 2.52,7.36c0.97,2.05 1.65,3.91 1.35,4.1c-0.77,0.84 -3.68,-2.14 -5.03,-5.13c-1.26,-3.08 -1.84,-14.26 -0.58,-14.26c0.29,0 2.9,1.68 5.71,3.73l0,-0.01zm30.29,-3.36c-1.16,0.93 -5.81,1.49 -5.23,0.56c0.29,-0.47 1.74,-0.93 3.1,-0.93c1.45,0 2.32,0.19 2.13,0.37zm88.55,0.37c0.87,1.3 -2.32,4.85 -4.35,4.85c-2.13,0 -2.52,-2.7 -0.68,-4.47c1.35,-1.3 4.26,-1.49 5.03,-0.37l0,-0.01zm-43.35,3.63c-1.94,10.16 -2.13,9.04 3.1,13.98c4.74,4.38 4.84,4.57 5.52,11.65c0.39,4.01 0.39,7.27 0.1,7.27c-0.29,0 -2.03,-2.8 -3.97,-6.34c-3.29,-6.06 -9.1,-14.07 -14.13,-19.48c-4.16,-4.57 -4.26,-4.94 -0.77,-7.74c2.42,-1.86 4.16,-2.52 6.97,-2.42c3.68,0.09 3.77,0.09 3.19,3.08l-0.01,0zm66.68,-2.14c1.74,1.21 1.74,1.3 -0.1,3.73c-1.45,1.86 -2.42,2.33 -4.26,1.86c-3.1,-0.65 -3.68,-1.21 -2.13,-2.14c0.77,-0.37 1.45,-1.58 1.65,-2.52c0.19,-0.93 0.39,-1.86 0.39,-2.05c0.19,-0.65 2.9,0 4.45,1.12zm14.61,0.75c0.97,1.49 -3.1,4.38 -5.42,3.82c-2.23,-0.56 -2.52,-2.14 -0.77,-3.82c1.45,-1.4 5.32,-1.49 6.19,0zm-33.68,2.98c0.48,2.24 -0.58,6.15 -1.65,6.15c-1.26,0 -2.23,-4.47 -1.55,-6.62c0.77,-2.24 2.81,-1.86 3.19,0.47l0.01,0zm-13.35,0.93c0,0.28 -0.39,0.75 -0.97,1.03c-0.48,0.28 -0.97,0.09 -0.97,-0.37c0,-0.56 0.48,-1.03 0.97,-1.03c0.58,0 0.97,0.19 0.97,0.37zm38.71,1.03c1.74,1.96 0.48,4.19 -2.42,4.19c-2.61,0 -3.97,-1.86 -3,-4.19c0.68,-1.77 3.87,-1.77 5.42,0zm-30.97,3.73c0.68,3.17 0.1,9.79 -0.87,9.79c-0.87,0 -4.94,-9.51 -4.94,-11.46c0,-1.3 0.58,-1.68 2.61,-1.4c2.03,0.19 2.81,0.93 3.19,3.08l0.01,-0.01zm17.42,-1.86c0,1.3 -3.58,3.26 -5.9,3.26c-1.94,0 -0.77,-3.63 1.35,-4.01c3.97,-0.75 4.55,-0.65 4.55,0.75zm31.45,-0.28c4.55,1.96 2.13,4.47 -4.55,4.47c-3.48,0 -5.61,-0.84 -5.61,-2.42c0,-2.8 5.71,-4.01 10.16,-2.05zm-85.64,0.75c0,0.47 -0.39,0.93 -0.97,0.93c-0.48,0 -0.97,-0.47 -0.97,-0.93c0,-0.56 0.48,-0.93 0.97,-0.93c0.58,0 0.97,0.37 0.97,0.93zm60.58,2.33c2.42,2.52 6.87,3.17 8.9,1.21c0.87,-0.84 1.16,-0.75 1.16,0.65c0,2.14 -5.42,10.72 -6.68,10.72c-0.48,0 -1.55,-1.68 -2.42,-3.82l-1.65,-3.82l-4.06,3.54c-9,7.74 -9.48,11.28 -2.71,21.44c1.26,1.77 1.06,2.42 -1.65,6.06c-1.65,2.24 -3.97,5.31 -5.23,6.8l-2.32,2.61l0,-7.36c0.1,-6.71 -0.19,-7.74 -2.61,-10.9l-2.81,-3.45l2.03,-6.34c1.74,-5.5 2.42,-6.52 4.65,-7.08c3.48,-0.84 9,-4.85 9,-6.52c0,-0.93 -1.45,-0.47 -4.84,1.58c-2.71,1.58 -5.13,2.7 -5.42,2.42c-1.26,-1.3 2.23,-4.29 6.58,-5.87c2.61,-0.93 5.03,-2.24 5.32,-2.89c0.77,-1.96 2.23,-1.58 4.74,1.03l0.02,-0.01zm-132.19,3.45c0,0.93 -0.48,1.68 -0.97,1.68c-1.45,0 -2.23,-2.52 -1.55,-4.38c0.58,-1.4 0.77,-1.4 1.55,-0.28c0.58,0.75 0.97,2.14 0.97,2.98zm21.29,-2.98c0,0.47 -0.48,0.93 -1.06,0.93c-0.48,0 -0.68,-0.47 -0.39,-0.93c0.29,-0.56 0.77,-0.93 1.06,-0.93c0.19,0 0.39,0.37 0.39,0.93zm50.03,3.36c-0.97,0.93 -3.58,-1.49 -3.58,-3.17c0,-1.21 0.39,-1.12 2.13,0.47c1.16,1.21 1.84,2.33 1.45,2.7zm16.74,-3.17c0,1.77 -1.74,4.01 -2.42,3.36c-0.87,-0.84 0.39,-4.47 1.55,-4.47c0.48,0 0.87,0.56 0.87,1.12l0,-0.01zm-42.77,1.68c0.29,0.75 0,0.93 -0.77,0.47c-0.68,-0.37 -1.55,-0.19 -1.94,0.47c-0.39,0.65 -1.26,0.84 -1.84,0.56c-1.55,-1.03 -1.26,-2.42 0.39,-1.86c0.77,0.37 1.45,0.09 1.45,-0.56c0,-1.4 2.13,-0.75 2.71,0.93l0,-0.01zm4.06,-0.93c0,0.47 -0.39,0.93 -0.97,0.93c-0.48,0 -0.97,-0.47 -0.97,-0.93c0,-0.56 0.48,-0.93 0.97,-0.93c0.58,0 0.97,0.37 0.97,0.93zm55.16,8.57l2.23,7.08l-2.81,7.55c-1.55,4.1 -3,7.18 -3.29,6.8c-0.77,-1.03 0.1,-30.38 0.87,-29.45c0.39,0.47 1.74,4.01 3,8.02zm-86.13,-6.34c0,0.75 -0.39,1.68 -0.97,1.96c-0.48,0.28 -0.97,-0.28 -0.97,-1.3c0,-1.12 0.48,-1.96 0.97,-1.96c0.58,0 0.97,0.56 0.97,1.3zm21.1,1.4c0.29,0.75 -0.1,1.12 -0.87,0.84c-0.68,-0.19 -1.45,-0.93 -1.65,-1.58c-0.29,-0.75 0.1,-1.12 0.87,-0.84c0.68,0.19 1.45,0.93 1.65,1.58zm49.16,1.21c-0.39,1.21 -0.87,3.26 -1.16,4.66c-0.77,3.08 -1.84,3.36 -3.29,0.84c-1.35,-2.52 -1.26,-3.17 0.58,-2.52c1.16,0.47 1.45,0.19 0.97,-0.93c-0.68,-1.58 0.87,-4.1 2.52,-4.1c0.58,0 0.68,0.93 0.39,2.05l-0.01,0zm-72.87,0c0.48,1.58 -0.29,4.47 -1.26,4.47c-0.97,0 -2.03,-3.82 -1.35,-4.85c0.77,-1.12 2.13,-0.93 2.61,0.37l0,0.01zm21,0.65c0,1.12 -4.84,4.1 -5.61,3.45c-0.77,-0.84 3.77,-5.22 4.74,-4.66c0.48,0.28 0.87,0.84 0.87,1.21zm-13.06,0.09c-0.29,0.47 -1.06,0.93 -1.55,0.93c-0.58,0 -0.68,-0.47 -0.39,-0.93c0.29,-0.56 1.06,-0.93 1.55,-0.93c0.58,0 0.68,0.37 0.39,0.93zm20.81,-0.09c0,0.47 -1.06,1.03 -2.42,1.21c-2.71,0.56 -3.39,-0.75 -0.68,-1.4c2.71,-0.75 3.1,-0.65 3.1,0.19zm125.22,2.42c-0.39,0.75 -0.97,1.4 -1.45,1.4c-0.48,0 -0.87,-0.65 -0.87,-1.4c0,-0.75 0.68,-1.4 1.45,-1.4c0.87,0 1.16,0.56 0.87,1.4zm-116.51,0.37c0,0.84 -6.87,1.96 -7.74,1.3c-0.77,-0.65 1.74,-1.68 4.74,-1.86c1.65,-0.09 3,0.19 3,0.56zm79.74,5.22c0.39,4.85 0,6.99 -1.45,6.99c-0.48,0 -0.87,-2.98 -0.87,-6.71c0,-7.64 1.65,-7.83 2.32,-0.28zm-119.9,-4.1c0.58,0.84 -2.03,7.36 -2.9,7.36c-0.29,0 -0.48,-1.12 -0.48,-2.42c0,-1.49 0.39,-2.14 1.06,-1.68c0.87,0.47 0.97,-0.09 0.48,-1.86c-0.58,-2.42 0.58,-3.36 1.84,-1.4zm8.9,0.56c-0.87,0.84 -1.84,1.3 -2.23,1.03c-0.97,-0.93 0.58,-2.61 2.32,-2.61c1.45,0 1.45,0.09 -0.1,1.58l0.01,0zm22.55,-0.65c0,0.84 -4.84,1.86 -8.81,1.86c-3.29,0 -3.77,-1.58 -0.58,-2.05c4.55,-0.56 9.39,-0.56 9.39,0.19zm121.45,0.93c0.29,0.47 -0.1,0.93 -0.87,0.93c-0.77,0 -1.74,-0.47 -2.03,-0.93c-0.29,-0.56 0.1,-0.93 0.87,-0.93c0.77,0 1.74,0.37 2.03,0.93zm-146.51,3.82c-1.26,1.03 -2.61,1.58 -2.9,1.21c-0.68,-0.65 2.71,-3.17 4.16,-3.17c0.58,0.09 0,0.93 -1.26,1.96zm142.84,-1.4c-0.29,0.28 -1.16,0.37 -1.84,0.09c-0.77,-0.28 -0.48,-0.56 0.58,-0.56c1.06,-0.09 1.65,0.19 1.26,0.47zm-75.48,1.77c1.84,1.3 1.94,1.58 0.77,6.43c-0.68,2.8 -1.55,7.64 -1.94,10.72c-0.39,3.17 -0.97,5.69 -1.45,5.69c-1.06,0 -1.94,-7.46 -1.94,-16.4c0,-8.3 0.58,-9.13 4.55,-6.43l0.01,-0.01zm81.58,1.4c0,0.28 -1.16,3.73 -2.61,7.64c-2.42,6.9 -4.16,9.23 -4.16,5.59c0,-2.24 -3.58,-7.74 -6.68,-10.16c-1.94,-1.58 -2.23,-2.33 -1.26,-2.89c1.35,-0.93 14.71,-1.12 14.71,-0.19l0,0.01zm-150.96,1.3c0,0.19 -0.68,0.84 -1.45,1.49c-1.16,0.93 -1.45,0.93 -1.45,-0.37c0,-0.84 0.68,-1.49 1.45,-1.49c0.77,0 1.45,0.19 1.45,0.37zm77.32,3.91c0.58,2.33 1.16,9.23 1.16,15.38c0.1,12.77 -1.94,39.05 -3,39.05c-1.16,0 -3.58,-10.72 -4.84,-20.6c-0.97,-8.11 -0.87,-10.16 1.45,-22.93c1.35,-7.74 2.42,-14.26 2.42,-14.63c0,-0.28 0.39,-0.56 0.87,-0.56c0.48,0 1.35,1.96 1.94,4.29zm33.97,2.89c0,0.65 -0.39,1.21 -0.87,1.21c-0.97,0 -2.03,-3.36 -1.94,-6.06c0,-1.49 0.39,-1.21 1.35,0.93c0.77,1.49 1.35,3.36 1.45,3.91l0.01,0.01zm-69.68,-2.61c1.35,2.61 1.16,5.31 -0.48,6.62c-2.81,2.24 -5.81,-2.24 -4.26,-6.34c0.97,-2.52 3.39,-2.7 4.74,-0.28zm-12.77,1.77c0.19,1.4 -0.19,2.05 -1.16,2.05c-1.06,0 -1.55,-0.84 -1.55,-2.42c0,-2.89 2.23,-2.61 2.71,0.37zm-58.84,1.12c0,0.47 -0.39,0.93 -0.97,0.93c-0.48,0 -0.97,-0.47 -0.97,-0.93c0,-0.56 0.48,-0.93 0.97,-0.93c0.58,0 0.97,0.37 0.97,0.93zm-4.35,0.93c-0.29,0.47 -1.26,0.93 -2.03,0.93c-0.77,0 -1.16,-0.47 -0.87,-0.93c0.29,-0.56 1.26,-0.93 2.03,-0.93c0.77,0 1.16,0.37 0.87,0.93zm53.71,0.47c0.58,0.75 0.87,1.68 0.58,2.14c-0.97,1.49 -6.39,1.86 -7.55,0.47c-1.16,-1.4 -1.16,-1.4 1.65,-2.89c2.61,-1.4 3.87,-1.4 5.32,0.28zm120,0.09c0,1.3 -0.29,1.3 -1.45,0.37c-0.77,-0.65 -1.45,-1.3 -1.45,-1.49c0,-0.19 0.68,-0.37 1.45,-0.37c0.77,0 1.45,0.65 1.45,1.49zm-8.42,4.75c2.13,1.4 5.61,2.7 7.74,3.08c5.03,0.65 4.94,1.58 -0.39,10.44c-3.97,6.62 -5.71,7.83 -5.71,4.19c-0.1,-3.63 -3.58,-9.79 -6.48,-11.18c-1.45,-0.75 -4.84,-1.68 -7.35,-2.05c-2.52,-0.37 -4.55,-1.03 -4.55,-1.4c0,-0.47 2.03,-2.52 4.55,-4.57c4.26,-3.45 4.74,-3.63 6.58,-2.42c1.06,0.84 3.58,2.52 5.61,3.91zm-35.13,4.38c0,2.05 -0.29,3.36 -0.68,2.98c-1.06,-0.93 -3,-10.72 -2.32,-11.37c0.97,-0.93 2.9,4.57 3,8.39zm-127.35,-5.5c-0.68,1.49 -2.32,1.68 -7.06,0.84c-4.35,-0.84 -2.61,-2.24 2.81,-2.24c3.87,0 4.65,0.28 4.26,1.4l-0.01,0zm4.45,0c0,1.4 -2.52,2.98 -3.48,2.14c-0.19,-0.28 -0.19,-1.21 0.19,-2.05c0.77,-1.86 3.29,-1.96 3.29,-0.09zm58.45,0.19c0.39,0.84 0,2.14 -0.87,2.98c-1.26,1.3 -1.65,1.3 -3,-0.09c-0.87,-0.84 -1.35,-2.24 -1.06,-2.98c0.77,-1.96 4.16,-1.86 4.94,0.09l-0.01,0zm22.26,-0.09c0.77,1.86 -0.1,3.17 -1.94,3.17c-1.45,0 -1.65,-0.84 -0.77,-3.17c0.77,-1.86 1.94,-1.86 2.71,0zm84.87,0.28c1.26,1.03 2.13,2.05 1.84,2.33c-0.29,0.28 -1.84,-0.56 -3.39,-1.77c-1.65,-1.21 -2.42,-2.24 -1.84,-2.33c0.68,0 2.13,0.84 3.39,1.77zm-161.71,-0.19c0,0.47 -0.39,1.4 -0.97,2.14c-1.06,1.68 -2.42,0.65 -1.65,-1.4c0.58,-1.4 2.61,-1.96 2.61,-0.75l0.01,0.01zm47.42,1.68c1.55,1.86 0.39,3.26 -2.81,3.26c-3.29,0 -7.16,-2.42 -4.94,-3.08c0.77,-0.28 2.13,-0.75 2.9,-0.93c2.52,-0.84 3.58,-0.65 4.84,0.75l0.01,0zm21.68,2.98c-0.68,1.86 -1.65,2.7 -3.58,2.89c-3.39,0.37 -3.48,-1.86 -0.1,-5.13c3.1,-2.98 5.13,-1.77 3.68,2.24zm-8.13,0.28c0,2.33 -0.39,2.8 -2.42,2.8c-1.35,0 -2.71,-0.65 -3,-1.4c-0.77,-1.86 1.26,-4.19 3.58,-4.19c1.35,0 1.84,0.65 1.84,2.8l0,-0.01zm17.42,0.93c1.74,1.12 0.29,4.01 -2.42,4.47c-2.81,0.56 -3.97,-1.4 -1.94,-3.54c2.03,-2.14 2.32,-2.14 4.35,-0.93l0.01,0zm57.87,2.52c-0.19,1.86 -0.87,2.7 -2.42,2.89c-2.71,0.37 -2.71,-0.19 -0.48,-3.08c2.23,-2.98 3.29,-2.89 2.9,0.19zm-80.13,2.14c2.13,1.3 0,4.1 -3.29,4.47c-2.9,0.37 -4.35,-1.86 -2.52,-4.01c1.35,-1.58 3.68,-1.77 5.81,-0.47l0,0.01zm-40.64,2.05c0,1.21 -2.23,0.47 -2.71,-0.93c-0.19,-0.65 0.19,-0.93 1.16,-0.56c0.87,0.28 1.55,1.03 1.55,1.49zm65.81,0.37c0,1.49 -0.87,1.68 -2.9,0.37c-1.26,-0.84 -1.26,-1.03 0,-1.77c1.65,-1.12 2.9,-0.47 2.9,1.4zm72.19,5.78c2.13,4.57 2.23,5.13 0.87,7.46c-1.74,3.17 -7.06,9.04 -7.64,8.48c-0.19,-0.19 -0.1,-2.14 0.29,-4.38c0.48,-3.17 1.16,-4.38 3.48,-5.59c1.65,-0.84 3.1,-1.68 3.29,-1.86c0.48,-0.28 -3.58,-7.55 -5.32,-9.6c-2.13,-2.33 -1.55,-3.17 0.68,-1.21c1.16,0.93 3.19,4.01 4.35,6.71l0,-0.01zm-86.03,-5.78c0.39,1.03 -0.1,2.05 -1.16,2.8c-2.32,1.58 -2.61,1.58 -4.94,-0.09c-1.84,-1.4 -1.84,-1.4 0,-2.8c2.52,-1.86 5.32,-1.77 6.1,0.09zm-55.35,0.37c0.29,0.47 -0.1,0.93 -0.87,0.93c-0.77,0 -1.74,-0.47 -2.03,-0.93c-0.29,-0.56 0.1,-0.93 0.87,-0.93c0.77,0 1.74,0.37 2.03,0.93zm64.26,1.03c3.68,1.21 3.77,2.05 0.39,3.54c-2.03,0.93 -2.81,0.84 -3.87,-0.19c-0.77,-0.65 -1.06,-1.96 -0.68,-2.8c0.68,-1.86 0.39,-1.86 4.16,-0.56l0,0.01zm-67.93,1.49c0.29,0.65 -0.29,0.84 -1.55,0.56c-1.16,-0.28 -2.03,-0.93 -2.03,-1.4c0,-1.21 3.1,-0.56 3.58,0.84zm37.84,-0.09c2.42,0.65 2.9,3.82 0.68,4.66c-2.13,0.84 -6.39,-2.14 -5.71,-3.82c0.68,-1.49 1.65,-1.68 5.03,-0.84zm68.13,1.03c0.97,0.84 1.74,2.24 1.74,3.17c0,1.68 -5.52,11.09 -6.48,11.09c-0.19,0 -0.19,-1.58 0.1,-3.54c0.29,-1.86 0.77,-5.41 1.06,-7.92c0.68,-4.85 0.97,-5.13 3.58,-2.8zm-109.06,0.19c0.58,1.03 -3.19,3.36 -4.06,2.52c-0.68,-0.65 1.55,-3.36 2.71,-3.36c0.39,0 0.97,0.37 1.35,0.84zm11.13,2.98c-0.58,0.93 -1.45,1.77 -2.03,1.77c-0.58,0 -0.77,-0.28 -0.58,-0.75c0.19,-0.37 0.68,-1.4 0.97,-2.33c0.39,-0.93 1.06,-1.4 1.65,-1.12c0.68,0.37 0.68,1.21 0,2.42l-0.01,0.01zm2.52,0.65c-1.35,1.3 -1.55,1.3 -1.55,0.09c0,-1.86 2.23,-4.1 2.81,-2.61c0.19,0.56 -0.39,1.68 -1.26,2.52zm36.97,-1.96c-0.39,2.14 -5.61,2.89 -5.61,0.84c0,-1.21 1.55,-2.05 4.65,-2.33c0.77,0 1.16,0.65 0.97,1.49l-0.01,0zm13.35,2.52c-1.94,2.89 -3.97,3.08 -5.42,0.56c-0.87,-1.58 -0.58,-2.05 2.13,-3.17c4.06,-1.58 5.42,-0.47 3.29,2.61zm68.42,0.56c4.65,0 3.87,1.4 -1.26,2.24c-3.58,0.56 -5.52,2.42 -2.52,2.42c1.55,0 5.42,4.29 5.42,5.87c0,0.56 -1.26,-0.09 -2.71,-1.49c-3.48,-3.26 -4.16,-3.17 -3.39,0.47c0.77,4.1 2.03,6.52 4.35,8.3c2.42,1.77 1.65,3.45 -3.48,8.2c-3.68,3.45 -4.16,2.89 -2.61,-2.42c1.26,-4.38 -0.19,-8.48 -4.84,-13.14c-4.94,-5.03 -5.71,-4.29 -5.71,5.41c0,6.62 0.58,8.67 3.87,13.61c1.16,1.86 0.58,2.8 -8.32,12.68c-5.23,5.96 -9.77,10.63 -10.06,10.44c-1.26,-0.65 1.06,-17.34 3.39,-25.07c3,-9.97 8.71,-21.72 13.55,-27.77l3.48,-4.38l3.58,2.33c2.23,1.49 4.94,2.33 7.26,2.33l0,-0.03zm-124.16,-3.08c-0.1,1.77 -1.84,3.17 -3.48,2.98c-1.06,-0.19 -2.23,-0.09 -2.81,0.19c-1.84,1.12 -6.29,1.77 -6.29,1.03c0,-0.47 1.55,-1.49 3.58,-2.42c2.81,-1.3 3.68,-1.4 4.26,-0.37c0.58,0.84 0.97,0.75 1.45,-0.47c0.58,-1.58 3.29,-2.33 3.29,-0.93l0,-0.01zm68.32,1.4c1.26,1.86 -2.32,3.54 -5.52,2.42c-3.68,-1.21 -3.58,-2.42 0.39,-2.89c1.65,-0.19 3.39,-0.47 3.77,-0.47c0.39,-0.09 0.97,0.28 1.35,0.93l0.01,0.01zm-20.9,1.58c0,1.77 -3.39,3.63 -4.55,2.52c-0.68,-0.65 2.52,-4.29 3.77,-4.29c0.39,0 0.77,0.84 0.77,1.77l0.01,0zm-8.9,2.7c0.19,1.12 -0.1,2.05 -0.58,2.05c-1.35,0 -4.16,-3.36 -3.39,-4.1c1.35,-1.21 3.68,-0.09 3.97,2.05zm33,6.34c0.68,3.91 0.97,7.27 0.68,7.55c-0.29,0.28 -2.32,-1.21 -4.65,-3.26c-3.87,-3.63 -3.97,-3.91 -2.42,-5.59c0.87,-0.93 1.65,-2.33 1.65,-3.17c0,-1.68 0.87,-2.61 2.42,-2.61c0.68,0 1.65,2.8 2.32,7.08zm-20.71,-5.31c0.77,1.3 -2.71,2.89 -4.26,1.96c-0.77,-0.37 -0.97,-1.21 -0.68,-1.77c0.87,-1.21 4.16,-1.4 4.94,-0.19zm13.55,1.03c0,2.14 -5.71,1.86 -6.1,-0.28c-0.29,-1.4 0.19,-1.68 2.9,-1.4c2.03,0.19 3.19,0.75 3.19,1.68l0.01,0zm66.29,3.91c0,2.98 -0.29,3.63 -0.97,2.61c-1.26,-1.86 -1.26,-6.52 0,-6.52c0.58,0 0.97,1.77 0.97,3.91zm-85.26,-1.49c2.52,1.21 2.9,1.86 2.42,3.45c-0.97,2.98 -0.97,2.98 -4.35,-0.09c-1.65,-1.49 -2.81,-3.26 -2.42,-3.82c0.87,-1.3 0.68,-1.3 4.35,0.47l0,-0.01zm11.13,1.03c0.68,1.58 -2.81,5.87 -4.84,5.87c-2.13,0 -2.23,-2.61 -0.29,-5.03c2.23,-2.8 4.26,-3.08 5.13,-0.84zm110.42,3.54c3.77,0.93 4.45,1.21 1.94,0.93c-2.13,-0.28 -5.03,-0.47 -6.48,-0.47c-1.55,0 -2.71,-0.47 -2.71,-0.93c0,-1.12 0.19,-1.12 7.26,0.47l-0.01,0zm-97.16,11.84c2.9,3.26 4.06,5.59 4.74,9.32c0.39,2.7 0.58,5.13 0.48,5.31c-1.35,1.21 -24.68,-19.39 -24.68,-21.81c0,-0.28 0.87,-0.47 1.84,-0.47c0.97,0 2.81,-0.84 4.06,-1.77l2.32,-1.86l3.68,3.45c2.03,1.86 5.52,5.41 7.55,7.83l0.01,0zm44.81,-4.29c0.87,2.24 0.68,6.15 -0.29,5.59c-1.06,-0.65 -1.94,-7.08 -0.97,-7.08c0.39,0 0.97,0.65 1.26,1.49zm-72,3.54c0,0.28 -0.39,0.75 -0.97,1.03c-0.48,0.28 -0.97,0.09 -0.97,-0.37c0,-0.56 0.48,-1.03 0.97,-1.03c0.58,0 0.97,0.19 0.97,0.37zm-7.26,1.49c-0.29,0.47 -1.16,0.93 -1.84,0.93c-0.68,0 -2.03,0.93 -3.1,2.05l-1.84,1.96l3.39,-0.65c5.52,-1.12 11.13,-1.77 10.64,-1.3c-0.77,0.84 -17.61,4.57 -18.1,4.1c-0.77,-0.75 0.68,-2.42 4.74,-5.31c3.87,-2.61 7.26,-3.63 6.1,-1.77l0.01,-0.01zm88.06,12.12c0.29,0.47 -0.1,0.93 -0.87,0.93c-0.87,0 -1.55,-0.47 -1.55,-0.93c0,-0.56 0.39,-0.93 0.87,-0.93c0.58,0 1.26,0.37 1.55,0.93zm-52.93,2.8c4.65,4.19 6.48,7.36 5.13,8.67c-0.77,0.75 -1.06,0.75 -1.06,0c0,-0.56 -1.74,-3.17 -3.87,-5.78c-3.58,-4.38 -4.45,-5.69 -3.48,-5.69c0.1,0 1.65,1.21 3.29,2.8l-0.01,0zm16.64,37.28c0,0.47 -0.87,0.93 -1.94,0.93c-1.06,0 -1.94,-0.47 -1.94,-0.93c0,-0.56 0.87,-0.93 1.94,-0.93c1.06,0 1.94,0.37 1.94,0.93zm34.84,5.59c0,0.47 -0.39,0.93 -0.97,0.93c-0.48,0 -0.97,-0.47 -0.97,-0.93c0,-0.56 0.48,-0.93 0.97,-0.93c0.58,0 0.97,0.37 0.97,0.93zm-24.68,4.66c0.29,0.47 -0.1,0.93 -0.87,0.93c-0.87,0 -1.55,-0.47 -1.55,-0.93c0,-0.56 0.39,-0.93 0.87,-0.93c0.58,0 1.26,0.37 1.55,0.93zm-8.23,1.86c0,0.47 -0.87,0.93 -1.94,0.93c-1.06,0 -1.94,-0.47 -1.94,-0.93c0,-0.56 0.87,-0.93 1.94,-0.93c1.06,0 1.94,0.37 1.94,0.93zm-31.93,5.59c0,0.47 -1.26,0.93 -2.9,0.93c-1.55,0 -2.9,-0.47 -2.9,-0.93c0,-0.56 1.35,-0.93 2.9,-0.93c1.65,0 2.9,0.37 2.9,0.93zm60,16.78c0,0.47 -0.39,0.93 -0.97,0.93c-0.48,0 -0.97,-0.47 -0.97,-0.93c0,-0.56 0.48,-0.93 0.97,-0.93c0.58,0 0.97,0.37 0.97,0.93zm-28.06,6.52c0,0.47 -0.39,0.93 -0.97,0.93c-0.48,0 -0.97,-0.47 -0.97,-0.93c0,-0.56 0.48,-0.93 0.97,-0.93c0.58,0 0.97,0.37 0.97,0.93z" id="svg_28"/>
   <path d="m564.92,516.79c-6.29,1.77 -12.1,4.29 -12.1,5.31c0,1.4 15.29,8.02 21.1,9.23c8.9,1.77 20.52,-1.4 20.52,-5.5c0,-4.1 -10.35,-9.51 -19.26,-10.07c-3,-0.19 -7.55,0.28 -10.26,1.03zm18.58,5.69c-0.87,0.84 -2.71,-0.56 -2.03,-1.68c0.39,-0.56 0.97,-0.56 1.65,0.09c0.58,0.56 0.77,1.21 0.39,1.58l-0.01,0.01zm-18.1,1.68c0,0.28 -0.39,0.75 -0.97,1.03c-0.48,0.28 -0.97,0.09 -0.97,-0.37c0,-0.56 0.48,-1.03 0.97,-1.03c0.58,0 0.97,0.19 0.97,0.37zm4.84,1.49c0,0.47 -0.68,0.93 -1.55,0.93c-0.77,0 -1.16,-0.47 -0.87,-0.93c0.29,-0.56 0.97,-0.93 1.55,-0.93c0.48,0 0.87,0.37 0.87,0.93zm5.81,0.84c0,1.12 -3.77,2.33 -4.65,1.49c-0.68,-0.65 1.65,-2.33 3.48,-2.33c0.58,0 1.16,0.37 1.16,0.84l0.01,0zm6.29,1.03c-0.29,0.47 -1.26,0.93 -2.03,0.93c-0.77,0 -1.16,-0.47 -0.87,-0.93c0.29,-0.56 1.26,-0.93 2.03,-0.93c0.77,0 1.16,0.37 0.87,0.93z" id="svg_29" transform="matrix(1 0 0 1 0 0)"/>
   <path d="m590.57,619.78c-1.84,1.12 -4.74,3.73 -6.39,5.87c-2.9,3.82 -6.68,11.74 -5.9,12.4c0.19,0.28 1.84,-0.19 3.68,-0.93c1.84,-0.65 6.39,-1.77 10.06,-2.33c8.61,-1.4 10.74,-2.8 13.55,-8.76c2.32,-4.66 2.32,-4.75 0.39,-6.06c-1.06,-0.65 -4.16,-1.49 -6.97,-1.68c-3.97,-0.37 -5.71,0 -8.42,1.49zm5.81,2.8c0,0.47 -0.87,0.93 -1.94,0.93c-1.06,0 -1.94,-0.47 -1.94,-0.93c0,-0.56 0.87,-0.93 1.94,-0.93c1.06,0 1.94,0.37 1.94,0.93zm-4.94,1.77c1.65,1.03 -0.1,2.14 -2.23,1.4c-1.16,-0.47 -1.45,-0.19 -0.97,0.93c0.39,0.93 0.1,1.49 -0.77,1.49c-2.61,0 -2.81,-1.3 -0.58,-2.98c2.61,-1.86 2.71,-1.96 4.55,-0.84zm-5.71,4.66c0,1.12 -1.94,2.33 -2.61,1.68c-0.68,-0.65 0.58,-2.52 1.74,-2.52c0.48,0 0.87,0.37 0.87,0.84zm8.9,2.14c-0.68,0.65 -1.16,0.75 -1.16,0.37c0,-0.47 -0.68,-0.28 -1.45,0.37c-1.84,1.4 -2.9,0.65 -2.03,-1.49c0.29,-0.84 1.16,-1.3 2.03,-0.93c0.77,0.28 1.45,0 1.45,-0.56c0,-0.84 0.29,-0.84 1.16,0c0.87,0.84 0.87,1.4 0,2.24zm-7.45,2.33c-1.06,0.65 -2.52,1.21 -3.29,1.21c-1.16,-0.09 -0.97,-0.56 0.77,-1.86c1.16,-1.03 2.71,-1.58 3.29,-1.21c0.58,0.37 0.29,1.03 -0.77,1.86z" id="svg_30" transform="matrix(1 0 0 1 0 0)"/>
   <path d="m485.08,653.34c-1.06,0.65 0.29,0.93 4.55,0.93c3.68,0 8.13,0.75 11.13,1.86c3.97,1.4 4.65,1.49 3.19,0.37c-4.94,-3.73 -15.19,-5.5 -18.87,-3.17l0,0.01z" id="svg_31" transform="matrix(1 0 0 1 0 0)"/>
   <path d="m483.54,659.39c-1.65,1.21 -1.26,1.3 4.74,1.4c4.06,0 7.74,0.56 9.48,1.49c1.65,0.75 3.19,1.3 3.39,1.03c0.77,-0.65 -3.87,-3.26 -7.94,-4.29c-5.13,-1.4 -7.35,-1.3 -9.68,0.37l0.01,0z" id="svg_32" transform="matrix(1 0 0 1 0 0)"/>
   <path d="m334.22,661.82c-2.81,1.03 -4.84,3.45 -4.94,5.69c0,0.84 -1.35,2.61 -3,4.01c-3.68,2.98 -3.29,3.54 1.65,2.42c2.03,-0.47 2.9,-0.84 1.84,-0.93c-3.68,-0.19 0.87,-3.08 5.71,-3.54c5.23,-0.56 6,-2.14 1.06,-2.14c-1.84,0 -3.39,-0.37 -3.39,-0.93c0,-1.86 15.58,-3.08 21.77,-1.58c2.71,0.65 2.81,0.56 0.97,-0.75c-3.97,-3.08 -16.26,-4.29 -21.68,-2.24l0.01,-0.01z" id="svg_33" transform="matrix(1 0 0 1 0 0)"/>
   <path d="m364.12,686.8c0,0.47 2.03,1.12 4.45,1.49c2.42,0.28 6.39,1.4 8.81,2.42c2.32,0.93 4.74,1.77 5.32,1.77c1.94,0 -1.65,-3.08 -5.52,-4.75c-3.97,-1.77 -13.06,-2.42 -13.06,-0.93z" id="svg_34" transform="matrix(1 0 0 1 0 0)"/>
   <path d="m357.44,691.46c-0.97,0.65 0,1.03 3.39,1.49c2.61,0.28 7.45,1.4 10.84,2.24c3.29,0.93 6,1.58 6,1.3c0,-0.19 -2.71,-1.58 -6,-3.08c-6.1,-2.8 -11.61,-3.54 -14.23,-1.96l0,0.01z" id="svg_35" transform="matrix(1 0 0 1 0 0)"/>
   <path d="m350.76,695.74c-1.74,0.75 -3,1.77 -2.71,2.14c0.29,0.47 5.9,1.12 12.39,1.4c6.58,0.28 12.77,0.75 13.84,1.21c4.45,1.58 -0.29,-1.49 -5.13,-3.26c-6.97,-2.7 -14.42,-3.26 -18.39,-1.49z" id="svg_36" transform="matrix(1 0 0 1 0 0)"/>
   <path d="m450.25,702.73c2.42,0.47 9.58,1.68 15.97,2.8c19.64,3.17 22.35,4.47 13.45,6.62c-2.32,0.56 -4.26,1.49 -4.26,1.96c0,0.47 0.77,0.65 1.74,0.37c0.87,-0.19 4.06,-0.75 6.97,-1.03c9.39,-1.12 12.87,-5.13 6.1,-6.99c-6.58,-1.77 -21.48,-3.63 -33,-4.1c-8.42,-0.37 -10.16,-0.28 -6.97,0.37z" id="svg_37" transform="matrix(1 0 0 1 0 0)"/>
   <path d="m360.25,703.67c0,0.47 1.26,0.93 2.71,0.93c2.61,0 8.32,1.3 18.1,4.19c4.84,1.4 4.84,1.4 2.61,-0.47c-3.58,-2.89 -12.39,-5.59 -18.1,-5.59c-2.9,0 -5.32,0.37 -5.32,0.93l0,0.01z" id="svg_38" transform="matrix(1 0 0 1 0 0)"/>
   <path d="m360.25,711.77c0,0.56 1.84,1.4 4.16,2.05c2.23,0.65 6.87,2.8 10.35,4.85c5.13,2.89 8.71,4.1 18.29,5.96c6.58,1.3 12.48,2.33 13.06,2.33c2.52,-0.09 -3.29,-2.98 -9.58,-4.75c-3.68,-1.12 -10.45,-3.82 -15,-6.06c-6.29,-3.08 -9.77,-4.19 -14.71,-4.66c-3.97,-0.37 -6.58,-0.28 -6.58,0.28l0.01,0z" id="svg_39" transform="matrix(1 0 0 1 0 0)"/>
   <path d="m520.12,712.24c0.68,1.77 6.1,2.05 7.55,0.37c1.06,-1.3 0.68,-1.49 -3.39,-1.49c-3.19,0 -4.35,0.37 -4.16,1.12z" id="svg_40" transform="matrix(1 0 0 1 0 0)"/>
   <path d="m269.38,728.55c-3.97,7.64 -5.61,9.69 -9.68,12.68c-2.81,1.96 -4.74,3.91 -4.45,4.38c0.29,0.56 2.9,-0.75 5.81,-2.89c4.55,-3.26 6.39,-4.01 15,-5.41c5.32,-0.93 10.06,-1.96 10.35,-2.33c1.65,-1.58 -1.45,-1.58 -9,-0.19c-4.55,0.93 -8.52,1.4 -8.81,1.21c-0.19,-0.28 1.35,-3.82 3.48,-8.02c4.35,-8.2 4.45,-8.48 3,-8.48c-0.48,0 -3.1,4.1 -5.71,9.04l0.01,0.01z" id="svg_41" transform="matrix(1 0 0 1 0 0)"/>
   <path d="m817.98,724.08c0,0.47 4.74,4.57 10.55,9.04c5.9,4.57 10.45,8.39 10.26,8.57c-0.19,0.19 -7.16,-0.75 -15.48,-2.14c-11.81,-1.86 -15.48,-2.14 -16.55,-1.3c-0.77,0.65 -1.26,1.4 -1.16,1.77c0.39,1.03 23.23,18.64 24.19,18.64c1.65,0 0.68,-1.77 -2.03,-3.91c-1.55,-1.12 -6.39,-4.85 -10.74,-8.2c-4.35,-3.26 -7.45,-6.15 -6.97,-6.34c0.58,-0.19 7.84,0.75 16.16,2.14c8.32,1.3 15.58,2.14 16.06,1.77c1.35,-0.84 0.97,-2.61 -0.77,-3.73c-0.97,-0.56 -6.29,-4.66 -11.9,-9.13c-9.97,-7.83 -11.61,-8.85 -11.61,-7.18l-0.01,0z" id="svg_42" transform="matrix(1 0 0 1 0 0)"/>
   <path d="m282.15,747.19c-8.03,5.31 -11.71,11.74 -9.77,17.34c2.13,6.15 9,10.63 14.81,9.6c8.52,-1.58 17.71,-11.37 16.64,-17.89c-1.74,-10.07 -12.97,-14.73 -21.68,-9.04l0,-0.01zm16.45,3.17c4.84,5.69 2.81,12.86 -5.23,18.55c-5.61,3.82 -11.42,3.91 -15.39,0.09c-5.52,-5.22 -5.03,-10.16 1.45,-16.5c5.32,-5.03 7.55,-6.06 12.58,-5.59c2.9,0.37 4.55,1.21 6.58,3.45l0.01,0z" id="svg_43" transform="matrix(1 0 0 1 0 0)"/>
   <path d="m792.72,753.34c-4.26,2.7 -7.64,7.64 -7.64,11.09c0,7.64 10.06,17.52 17.9,17.52c8.52,0 15.29,-8.57 12.77,-16.31c-1.45,-4.57 -6.68,-10.16 -11.61,-12.49c-5.32,-2.52 -7.35,-2.42 -11.42,0.19zm11.81,2.8c11.03,6.52 12.58,17.8 3.19,22.65c-4.35,2.33 -9.29,0.75 -14.81,-4.66c-3.58,-3.54 -4.35,-4.85 -4.74,-8.85c-0.39,-4.38 -0.19,-4.94 3,-8.02c4.06,-3.91 8.13,-4.29 13.35,-1.12l0.01,0z" id="svg_44" transform="matrix(1 0 0 1 0 0)"/>
   <path d="m307.8,774.03c-5.23,5.41 -8.61,9.79 -9,11.65c-1.65,6.99 6.39,14.17 14.03,12.58c3.1,-0.65 20.23,-17.71 18.87,-18.92c-0.39,-0.37 -4.26,2.98 -8.52,7.55c-9,9.23 -12.39,10.9 -17.03,8.67c-3.48,-1.77 -4.94,-4.1 -4.94,-7.74c0.1,-3.54 1.45,-5.69 8.23,-12.58c7.45,-7.55 8.52,-8.85 7.45,-9.51c-0.48,-0.28 -4.55,3.45 -9.1,8.3l0.01,0z" id="svg_45" transform="matrix(1 0 0 1 0 0)"/>
   <path d="m770.56,773.57c0,1.03 19.06,22.65 20.42,23.11c2.9,1.12 -3.77,-7.46 -15.77,-20.13c-3.87,-4.01 -4.65,-4.57 -4.65,-2.98z" id="svg_46" transform="matrix(1 0 0 1 0 0)"/>
   <path d="m757.98,782.61c-2.32,0.84 -5.9,4.29 -6.87,6.62c-1.16,2.89 1.35,7.46 4.74,8.67c1.84,0.65 4.35,0.65 8.52,-0.09c4.45,-0.84 6.48,-0.84 8.03,-0.09c2.32,1.21 3.48,4.66 2.52,7.55c-0.77,2.42 -5.9,5.59 -8.9,5.59c-1.26,0 -2.23,0.37 -2.23,0.93c0,1.58 5.13,1.03 8.42,-0.93c6.1,-3.54 7.45,-10.35 2.81,-14.26c-1.74,-1.4 -3.19,-1.58 -10.45,-1.12c-6.87,0.47 -8.61,0.28 -9.87,-0.93c-3.48,-3.36 -0.39,-9.32 5.42,-10.44c1.45,-0.28 2.42,-0.84 2.13,-1.3c-0.58,-0.93 -2.03,-0.93 -4.26,-0.19l-0.01,-0.01z" id="svg_47" transform="matrix(1 0 0 1 0 0)"/>
   <path d="m331.8,799.2c-5.13,6.52 -9.29,12.12 -9.29,12.68c0,1.96 1.74,0.56 5.81,-4.75c2.42,-3.08 4.65,-5.59 4.94,-5.59c1.26,0 4.74,4.01 5.32,6.24c0.39,1.3 0,4.47 -0.97,7.27c-1.74,5.41 -1.94,7.92 -0.68,7.92c1.26,0 3.97,-9.23 3.97,-13.42c0,-3.17 0.19,-3.36 3.39,-3.36c4.06,0 7.26,-2.98 7.26,-6.8c0,-3.73 -1.16,-5.41 -6.1,-8.85l-4.45,-2.98l-9.19,11.65l-0.01,-0.01zm14.32,-5.69c3.77,3.36 4.26,5.59 1.94,8.76c-0.97,1.4 -2.42,2.05 -4.65,2.05c-3.19,0 -8.32,-2.98 -8.32,-4.85c0,-1.21 5.9,-9.13 6.87,-9.13c0.39,0 2.32,1.4 4.16,3.17z" id="svg_48" transform="matrix(1 0 0 1 0 0)"/>
   <path d="m734.76,798.36c-5.32,3.45 -6.29,7.64 -2.81,11.93c1.84,2.33 2.42,2.42 10.45,2.42c5.23,0 8.81,0.37 9.58,1.12c1.26,1.21 1.55,6.24 0.39,7.83c-1.45,2.05 -5.61,4.1 -8.13,4.1c-2.71,0 -3.68,1.3 -1.45,2.05c4.26,1.49 13.26,-5.31 13.26,-10.07c0,-1.4 -1.26,-3.54 -3,-5.22c-2.9,-2.8 -3,-2.89 -10.06,-2.24c-6.39,0.56 -7.35,0.47 -9.19,-1.3c-3,-2.89 -2.52,-6.24 1.26,-8.39c1.65,-1.03 4.06,-1.86 5.32,-1.86c1.26,0 1.94,-0.37 1.65,-0.93c-0.87,-1.4 -4.65,-1.12 -7.26,0.56l-0.01,0z" id="svg_49" transform="matrix(1 0 0 1 0 0)"/>
   <path d="m709.01,813.18c-0.58,1.3 1.74,22.74 3.1,29.64c0.87,4.19 2.42,1.77 2.13,-3.26l-0.29,-4.75l6.1,-3.26l6.1,-3.17l3.87,2.98c2.13,1.58 4.35,2.8 4.94,2.61c0.97,-0.37 -22.26,-21.25 -24.48,-22c-0.48,-0.19 -1.16,0.37 -1.45,1.21l-0.02,0zm11.03,9.32c2.23,1.96 4.06,3.91 4.06,4.29c0,0.84 -9,5.5 -10.45,5.5c-0.48,0 -1.16,-2.42 -1.55,-5.41c-0.39,-2.89 -0.87,-6.99 -1.26,-9.04l-0.58,-3.73l2.81,2.42c1.55,1.3 4.65,4.01 6.97,5.96l0,0.01z" id="svg_50" transform="matrix(1 0 0 1 0 0)"/>
   <path d="m373.8,815.7c-7.16,3.54 -12,12.3 -10.26,18.83c1.45,5.5 8.9,10.81 15.1,10.81c2.32,0 3.19,-0.84 5.71,-5.31c1.65,-2.89 3,-5.59 3,-5.96c0,-0.75 -7.84,-5.5 -9,-5.5c-1.94,0 -0.19,2.05 2.71,3.45c1.84,0.84 3.39,2.14 3.39,2.8c0,2.14 -4.74,8.67 -6.29,8.67c-2.9,0 -7.94,-2.61 -9.97,-5.13c-4.06,-4.94 -1.55,-15.84 4.65,-20.04c5.23,-3.54 14.32,-1.96 17.81,3.17c1.55,2.33 3.48,3.26 3.48,1.68c0,-1.21 -3.97,-5.22 -6.87,-6.9c-4.55,-2.7 -8.71,-2.89 -13.45,-0.56l-0.01,-0.01z" id="svg_51" transform="matrix(1 0 0 1 0 0)"/>
   <path d="m684.14,824.08c-2.52,1.12 -4.45,2.42 -4.16,2.98c4.06,8.85 10.55,23.77 10.94,24.98c0.29,0.93 1.16,1.68 1.84,1.68c1.16,0 1.16,-0.56 -0.19,-3.54c-2.52,-5.69 -3.39,-7.92 -3.1,-8.11c0.19,-0.09 2.32,-1.21 4.74,-2.61c7.16,-3.91 8.13,-9.69 2.61,-15.38c-2.61,-2.61 -6.39,-2.61 -12.68,0zm11.42,2.14c4.26,4.01 2.81,9.88 -2.9,12.21c-1.84,0.75 -3.58,1.3 -3.87,1.3c-0.77,0 -6.58,-12.21 -6.1,-12.68c0.87,-0.84 7.26,-3.08 8.81,-3.17c0.97,0 2.81,1.03 4.06,2.33l0,0.01z" id="svg_52" transform="matrix(1 0 0 1 0 0)"/>
   <path d="m401.38,839.84c-6.29,6.71 -11.13,12.4 -10.74,12.68c0.39,0.37 2.32,-1.03 4.45,-2.98l3.87,-3.63l6.48,2.8l6.58,2.8l-0.29,4.85c-0.29,3.91 -0.1,4.85 1.16,4.85c1.26,0 1.55,-1.12 1.55,-5.87c0,-3.17 0.29,-10.44 0.58,-16.12c0.58,-8.76 0.48,-10.44 -0.77,-10.9c-1.06,-0.37 -5.03,3.26 -12.87,11.56l0,-0.04zm11.32,0.09c-0.19,4.75 -0.58,8.85 -0.77,9.04c-0.77,0.84 -11.13,-4.01 -10.84,-5.03c0.39,-1.4 10.55,-12.58 11.42,-12.58c0.39,0 0.48,3.91 0.19,8.57z" id="svg_53" transform="matrix(1 0 0 1 0 0)"/>
   <path d="m429.05,849.72c-4.94,16.22 -4.74,15.29 -3.39,15.84c0.58,0.19 1.74,-2.33 2.81,-5.96c0.97,-3.45 2.03,-6.71 2.42,-7.08c0.39,-0.47 2.32,-0.19 4.16,0.65c3.77,1.49 4.16,2.24 5.32,11.18c0.39,3.08 1.16,5.69 1.84,5.87c1.65,0.56 0.58,-11.56 -1.26,-14.35c-1.26,-1.96 -1.16,-2.14 1.06,-2.7c3.19,-0.75 6.29,-4.66 6.29,-7.83c0,-3.26 -3.48,-6.34 -9.19,-8.02c-2.61,-0.75 -4.94,-1.3 -5.32,-1.3c-0.29,0 -2.42,6.15 -4.74,13.7zm14.13,-8.57c1.65,1.03 2.23,2.33 2.23,4.66c0,4.19 -3.39,6.52 -7.94,5.69c-5.71,-1.03 -5.9,-1.49 -4.16,-7.55c1.65,-5.22 1.74,-5.31 4.65,-4.75c1.65,0.37 3.97,1.21 5.23,1.96l-0.01,-0.01z" id="svg_54" transform="matrix(1 0 0 1 0 0)"/>
   <path d="m643.11,837.04c-1.74,0.47 -3.29,1.21 -3.58,1.58c-0.68,1.12 7.84,28.52 9,28.89c1.45,0.47 1.35,-0.19 -0.77,-7.55c-1.74,-6.06 -1.74,-6.34 0,-7.18c0.97,-0.56 2.9,-0.93 4.35,-0.93c2.52,0 3.58,0.84 10.45,8.85c1.26,1.49 2.71,2.52 3.1,2.14c0.87,-0.93 -7.06,-10.81 -9.29,-11.46c-1.74,-0.56 -1.74,-0.65 0,-3.54c2.61,-4.01 2.42,-6.8 -0.48,-9.51c-2.52,-2.52 -6.87,-2.98 -12.77,-1.3l-0.01,0.01zm10.74,2.33c0.87,0.75 1.55,2.89 1.55,4.57c0,3.54 -2.32,5.59 -7.35,6.62c-2.81,0.47 -2.9,0.37 -4.65,-4.75c-0.97,-2.98 -1.35,-5.69 -0.87,-6.06c2.23,-2.05 9.39,-2.33 11.32,-0.37l0,-0.01z" id="svg_55" transform="matrix(1 0 0 1 0 0)"/>
   <path d="m626.95,852.51c1.16,6.06 1.94,12.02 1.65,13.33c-0.58,3.45 -3.39,5.69 -7.74,6.24c-3.1,0.37 -4.26,0.09 -6.39,-1.68c-2.13,-1.86 -2.9,-4.01 -4.84,-13.42c-1.26,-6.06 -2.81,-11.28 -3.48,-11.46c-1.45,-0.47 -1.35,0.28 0.97,11.84c2.23,10.81 3.87,14.35 7.35,15.84c6.19,2.7 14.42,-0.56 16.16,-6.34c1.16,-3.91 -2.81,-25.26 -4.65,-25.26c-0.97,0 -0.68,2.89 0.97,10.9l0,0.01z" id="svg_56" transform="matrix(1 0 0 1 0 0)"/>
   <path d="m458.57,857.17c-1.55,7.64 -2.81,14.17 -2.9,14.63c-0.19,1.3 10.16,3.36 13.74,2.7c4.06,-0.65 8.81,-4.38 10.45,-8.39c1.94,-4.47 1.74,-12.3 -0.48,-15.75c-2.03,-3.17 -10.35,-6.9 -15.39,-6.9c-2.71,0 -2.71,0 -5.42,13.7l0,0.01zm11.61,-10.44c7.45,2.24 10.06,7.27 8.03,15.94c-1.55,6.43 -4.94,9.79 -10.26,9.88c-5.42,0.09 -10.16,-1.12 -9.68,-2.33c0.19,-0.65 1.45,-6.43 2.61,-13.05c1.35,-6.99 2.71,-11.84 3.39,-11.84c0.58,0 3.29,0.65 5.9,1.4l0.01,0z" id="svg_57" transform="matrix(1 0 0 1 0 0)"/>
   <path d="m576.53,849.16c-1.06,0.56 -3,2.42 -4.35,4.29c-2.03,2.89 -2.42,4.47 -2.32,9.6c0.19,10.53 4.65,15.84 13.35,15.84c7.94,0 12.68,-3.91 13.74,-11.46c1.16,-7.64 -2.03,-15.56 -7.06,-18.27c-2.52,-1.21 -10.64,-1.3 -13.35,0l-0.01,0zm13.35,2.7c4.06,3.08 6.1,14.45 3.48,19.85c-2.52,5.31 -12.58,7.18 -16.84,3.08c-6,-5.78 -5.42,-21.44 0.87,-23.86c3.87,-1.49 9.87,-1.03 12.48,0.93l0.01,0z" id="svg_58" transform="matrix(1 0 0 1 0 0)"/>
   <path d="m492.63,863.23c-0.68,7.83 -0.97,14.63 -0.58,15.1c0.97,1.12 14.23,2.61 15.58,1.77c1.55,-0.93 -2.23,-1.96 -7.06,-2.05c-6.58,-0.19 -6.97,-0.65 -6.1,-7.64l0.77,-5.96l6.1,0.28c3.87,0.28 6,0 6,-0.65c0,-0.56 -1.84,-1.03 -4.26,-1.03c-6.68,0 -7.35,-0.56 -7.35,-5.5c0,-6.43 0.58,-6.9 8.13,-6.15c3.97,0.47 6.39,0.37 6.39,-0.28c0,-1.03 -5.52,-2.05 -11.71,-2.05l-4.45,0l-1.45,14.17l-0.01,-0.01z" id="svg_59" transform="matrix(1 0 0 1 0 0)"/>
   <path d="m520.6,861.37c-1.06,16.78 -0.87,20.32 0.77,20.32c1.26,0 1.45,-2.14 1.45,-13.51c0,-7.46 0.39,-13.51 0.77,-13.51c0.48,0 2.23,2.61 3.97,5.78c10.55,19.01 12,21.25 14.32,21.25c0.97,0 1.26,-3.17 1.26,-15.47c0,-10.9 -0.29,-15.38 -1.06,-15.1c-1.06,0.37 -1.26,3.17 -1.65,19.85l-0.19,7.46l-4.94,-8.39c-2.71,-4.66 -6.19,-10.81 -7.74,-13.79c-1.94,-3.54 -3.39,-5.31 -4.65,-5.31c-1.55,0 -1.84,1.12 -2.32,10.44l0.01,-0.02z" id="svg_60" transform="matrix(1 0 0 1 0 0)"/>
   <path d="m557.37,877.68c-0.39,0.28 -0.68,1.58 -0.68,2.8c0,1.21 -0.68,3.45 -1.45,4.94c-0.87,1.58 -1.06,2.8 -0.48,2.8c1.26,0 4.84,-6.9 4.84,-9.32c0,-1.86 -1.06,-2.42 -2.23,-1.21l0,-0.01z" id="svg_61" transform="matrix(1 0 0 1 0 0)"/>
   <path d="m523.19,692.22l22.76,21.92l0,0c12.57,12.1 30.74,11.76 40.56,-0.76c9.83,-12.53 7.6,-32.5 -4.97,-44.6l-22.76,-21.92l-35.59,45.37l0,-0.01z" fill="none" fill-opacity="0.06" id="svg_62" stroke="green" stroke-width="5" transform="rotate(21.2212 557.916 684.927)"/>
   <line fill="none" fill-opacity="0.06" id="svg_63" stroke="green" stroke-width="2" x1="539.4" x2="556.4" y1="679.6" y2="713.6"/>
   <line fill="none" fill-opacity="0.06" id="svg_64" stroke="green" stroke-width="2" x1="563.4" x2="578.4" y1="665.6" y2="696.6"/>
   <line fill="none" fill-opacity="0.06" id="svg_65" stroke="green" stroke-width="2" x1="550.4" x2="571.4" y1="672.6" y2="712.6"/>
  </g>
 </g>
</svg>